SplineFontDB: 3.0
FontName: siddham
FullName: siddham
FamilyName: siddham
Weight: Medium
Copyright: Created by zhaowp,,, with FontForge 2.0 (http://fontforge.sf.net)
UComments: "2017-8-18: Created." 
Version: 001.000
ItalicAngle: 0
UnderlinePosition: -100
UnderlineWidth: 50
Ascent: 800
Descent: 200
LayerCount: 2
Layer: 0 0 "+gMxmbwAA"  1
Layer: 1 0 "+Uk1mbwAA"  0
XUID: [1021 772 1641820895 12203298]
OS2Version: 0
OS2_WeightWidthSlopeOnly: 0
OS2_UseTypoMetrics: 1
CreationTime: 1503025869
ModificationTime: 1503046523
OS2TypoAscent: 0
OS2TypoAOffset: 1
OS2TypoDescent: 0
OS2TypoDOffset: 1
OS2TypoLinegap: 0
OS2WinAscent: 0
OS2WinAOffset: 1
OS2WinDescent: 0
OS2WinDOffset: 1
HheadAscent: 0
HheadAOffset: 1
HheadDescent: 0
HheadDOffset: 1
OS2Vendor: 'PfEd'
MarkAttachClasses: 4
"+aAeLsHx7XF4A--1" 48 u11580 u11581 u11582 u11583 u11584 u11585 u11586
"+aAeLsHx7XF4A--2" 0 
"+aAeLsHx7XF4A--3" 0 
DEI: 91125
Encoding: Custom
UnicodeInterp: none
NameList: Adobe Glyph List
DisplaySize: -24
AntiAlias: 1
FitToEm: 1
WinInfo: 0 49 23
BeginPrivate: 0
EndPrivate
BeginChars: 356 72

StartChar: u11580
Encoding: 256 71040 0
Width: 1024
Flags: HWO
LayerCount: 2
Fore
SplineSet
747 808 m 1
 763.667 806 789 795.167 823 775.5 c 128
 857 755.833 879 739.333 889 726 c 1
 891 704 l 1
 849 686 824.5 654.167 817.5 608.5 c 128
 810.5 562.833 811 520 819 480 c 1
 848 103 l 1
 854 76.3333 859.333 43.1667 864 3.5 c 128
 868.667 -36.1667 866 -68.3333 856 -93 c 1
 877.333 -114.333 898.167 -132.667 918.5 -148 c 128
 938.833 -163.333 961.667 -176 987 -186 c 1
 942.333 -198 891.333 -192.5 834 -169.5 c 128
 776.667 -146.5 727 -125.333 685 -106 c 1
 573 -26 l 1
 562.333 -22 553.167 -18.3333 545.5 -15 c 128
 537.833 -11.6667 535.333 -3.66667 538 9 c 1
 554 23 574.167 32.5 598.5 37.5 c 128
 622.833 42.5 645.667 46.3333 667 49 c 1
 707 46 l 1
 707 119 l 1
 685 335 l 1
 642.333 361.667 597.167 383 549.5 399 c 128
 501.833 415 454.333 432 407 450 c 1
 405 298 l 1
 389 169 l 1
 375.667 87.6667 341.167 15 285.5 -49 c 128
 229.833 -113 159 -123 73 -79 c 1
 52.3333 -59 40.8333 -39.3333 38.5 -20 c 128
 36.1667 -0.666666 40.6667 21.3333 52 46 c 1
 60 54.6667 69.1667 61.5 79.5 66.5 c 128
 89.8333 71.5 101 73 113 71 c 1
 122.333 57.6666 131.667 51.8333 141 53.5 c 128
 150.333 55.1667 160.667 60 172 68 c 1
 219.333 116.667 251.167 172.333 267.5 235 c 128
 283.833 297.667 291.333 362.333 290 429 c 1
 282 429 l 1
 177 327 l 1
 134 333 l 1
 125.333 343.667 114.333 354.833 101 366.5 c 128
 87.6667 378.167 80 392.667 78 410 c 1
 231 576 l 1
 217 586 198.667 604.167 176 630.5 c 128
 153.333 656.833 138.667 678 132 694 c 1
 201 763 l 1
 213.667 768.333 229.667 768.5 249 763.5 c 128
 268.334 758.5 284.667 754.667 298 752 c 1
 329.333 747.333 361.5 746.833 394.5 750.5 c 128
 427.5 754.178 459.333 759.345 490 766 c 0
 505.335 769.333 519.835 773.333 533.5 778 c 128
 547.169 782.667 561.335 783 576 779 c 1
 592 759 607.667 740.833 623 724.5 c 128
 638.333 708.164 644 686.331 640 659 c 1
 629.333 648.333 617 642.5 603 641.5 c 128
 589 640.5 574.667 639 560 637 c 0
 540.667 633.667 520.167 625.667 498.5 613 c 128
 476.833 600.333 459 587 445 573 c 1
 557 528 l 1
 675 464 l 1
 672 560 l 1
 666.667 592.667 667.167 631.5 673.5 676.5 c 128
 679.833 721.5 692.667 757.333 712 784 c 1
 747 808 l 1
EndSplineSet
EndChar

StartChar: u11581
Encoding: 257 71041 1
Width: 1024
Flags: HW
LayerCount: 2
Fore
SplineSet
813 808 m 1
 838.333 807.333 864.5 797.833 891.5 779.5 c 128
 918.5 761.167 933 740 935 716 c 1
 855 660 l 1
 829 621.333 818.5 571 823.5 509 c 128
 828.5 447 842.667 397 866 359 c 1
 889.333 335 908.167 317.5 922.5 306.5 c 128
 936.833 295.5 958.667 283 988 269 c 1
 963.333 254.333 935.5 252.667 904.5 264 c 128
 873.5 275.333 847.333 289.333 826 306 c 1
 763 364 l 1
 792 78 l 1
 796.667 57.3333 800.667 35.1667 804 11.5 c 128
 807.333 -12.1667 805 -34 797 -54 c 1
 882 -139 l 1
 964 -191 l 1
 905.333 -191 854.167 -182.833 810.5 -166.5 c 128
 766.833 -150.167 719.333 -128.667 668 -102 c 1
 612 -59 l 1
 590 -39.6667 568.167 -22 546.5 -6 c 128
 524.833 10 500.667 25 474 39 c 1
 488 51.6667 502.667 62.8333 518 72.5 c 128
 533.333 82.1667 550.667 88.6667 570 92 c 1
 641 94 l 1
 644 158 l 1
 631 356 l 1
 597 376.667 555.667 394.333 507 409 c 128
 458.333 423.667 415 437 377 449 c 1
 374 306 l 1
 374.667 251.333 369.667 197 359 143 c 128
 348.333 89 330.333 37.3333 305 -12 c 0
 283.667 -52.6667 251 -80 207 -94 c 128
 163 -108 120.667 -105.333 80 -86 c 1
 61.3333 -67.3333 48.8333 -45.8333 42.5 -21.5 c 128
 36.1667 2.83333 41.6667 27.3333 59 52 c 1
 86 62 l 1
 97.3333 48 105.333 39 110 35 c 128
 114.667 31 127.667 35 149 47 c 1
 203 101.667 236.167 161 248.5 225 c 128
 260.835 289 265.669 358.333 263 433 c 1
 247 430 l 1
 238.333 416 224.667 399.5 206 380.5 c 128
 187.333 361.5 170 350 154 346 c 1
 115 359 l 1
 105 367 93.6667 378.667 81 394 c 128
 68.3333 409.333 65.3333 424 72 438 c 1
 170 541 l 1
 177.333 547 184 553.333 190 560 c 128
 196 566.667 198.333 574.667 197 584 c 1
 131 668 l 1
 146 705 l 1
 207 756 l 1
 247 750 l 1
 382 748 l 1
 400 751.333 419.5 756.333 440.5 763 c 128
 461.5 769.667 480.667 771.667 498 769 c 1
 513.333 752.333 531.333 735.5 552 718.5 c 128
 572.667 701.5 577.667 680.333 567 655 c 1
 546.333 638.333 517.5 625.167 480.5 615.5 c 128
 443.5 605.833 415 589 395 565 c 1
 617 467 l 1
 615 555 l 1
 609 590.333 610.5 633.833 619.5 685.5 c 128
 628.5 737.167 651.667 772 689 790 c 1
 742 774 l 1
 750 766 l 1
 813 808 l 1
EndSplineSet
EndChar

StartChar: u11582
Encoding: 258 71042 2
Width: 1024
Flags: HW
LayerCount: 2
Fore
SplineSet
289 753 m 1
 317.667 744.333 345.333 735.833 372 727.5 c 128
 398.667 719.164 423.667 706.331 447 689 c 1
 481 658.333 500.833 620.333 506.5 575 c 128
 512.165 529.666 502.998 488.666 479 452 c 1
 412 393 l 1
 378.667 377 340.167 371 296.5 375 c 128
 252.833 379 215.333 391 184 411 c 1
 148.667 446.333 127.833 485.333 121.5 528 c 128
 115.167 570.668 126.333 613.334 155 656 c 1
 175.667 676 196.667 693 218 707 c 128
 239.333 721 263 736.333 289 753 c 1
795 750 m 1
 843 748.664 888.667 732.331 932 701 c 128
 975.333 669.665 1001.67 629.332 1011 580 c 0
 1015.67 555.333 1015 531.667 1009 509 c 128
 1003 486.333 995 464.333 985 443 c 1
 942.333 401 895 378.333 843 375 c 128
 791 371.667 739 383.667 687 411 c 1
 652.333 445.667 632.333 483.167 627 523.5 c 128
 621.667 563.833 632 606.333 658 651 c 1
 678 671.667 698.333 691.167 719 709.5 c 128
 739.667 727.833 765 741.333 795 750 c 1
266 607 m 1
 252.667 583.664 246.667 563.831 248 547.5 c 128
 249.333 531.167 259.333 514 278 496 c 1
 297.333 489.333 316 487.333 334 490 c 128
 352 492.667 368.333 501.333 383 516 c 1
 397 540 398.167 562.167 386.5 582.5 c 128
 374.833 602.833 356 617.667 330 627 c 1
 266 607 l 1
760 586 m 1
 753.333 568.667 751.167 553.667 753.5 541 c 128
 755.833 528.333 762 515 772 501 c 1
 791.333 494.333 809.667 490.833 827 490.5 c 128
 844.333 490.167 861 497.667 877 513 c 1
 891 545.667 892.833 572.167 882.5 592.5 c 128
 872.167 612.833 848 623.333 810 624 c 1
 760 586 l 1
547 344 m 1
 658.333 338 734.833 294 776.5 212 c 128
 818.167 130 812.667 41.3333 760 -54 c 1
 697.333 -116 636.833 -144.833 578.5 -140.5 c 128
 520.166 -136.167 455 -114.333 383 -75 c 1
 330.333 -17.6667 280.5 47.5 233.5 120.5 c 128
 186.5 193.5 133 252.333 73 297 c 1
 12 317 l 1
 30.6667 321.667 52.8333 319 78.5 309 c 128
 104.167 299 124.667 289 140 279 c 1
 263 186 l 1
 299.667 150.667 343.333 108.667 394 60 c 128
 444.667 11.3333 496.667 -11 550 -7 c 1
 602 13 l 1
 626.667 36.3333 644.167 62.6667 654.5 92 c 128
 664.833 121.333 661 151.667 643 183 c 1
 635 191.667 626.167 198.167 616.5 202.5 c 128
 606.833 206.833 595.333 207 582 203 c 1
 560 178.333 551.667 158.5 557 143.5 c 128
 562.333 128.5 564.667 116.333 564 107 c 1
 554.667 91 533.5 87.1667 500.5 95.5 c 128
 467.5 103.833 444 111.333 430 118 c 1
 421.333 146 418.833 174 422.5 202 c 128
 426.167 230 435.333 256.667 450 282 c 1
 465.334 297.333 479.668 309.5 493 318.5 c 128
 506.333 327.5 524.333 336 547 344 c 1
EndSplineSet
EndChar

StartChar: u11583
Encoding: 259 71043 3
Width: 1024
Flags: HW
LayerCount: 2
Fore
SplineSet
264 807 m 1
 363 756 l 1
 408.333 730.667 436.333 695.5 447 650.5 c 128
 457.667 605.5 455.333 560.667 440 516 c 1
 428 502.667 416 489.667 404 477 c 128
 392 464.332 377.667 453.665 361 445 c 0
 332.333 431 298.833 426.333 260.5 431 c 128
 222.167 435.667 190 446 164 462 c 1
 124 500 99.6667 536.667 91 572 c 128
 82.3333 607.333 90.3333 650.667 115 702 c 1
 137.667 724 160 743.333 182 760 c 128
 204 776.67 231.333 792.336 264 807 c 1
771 804 m 1
 816 779 l 1
 862.667 755.667 896.5 724.5 917.5 685.5 c 128
 938.5 646.5 944.667 601.667 936 551 c 1
 910 494 l 1
 875.333 458.667 834.333 437.667 787 431 c 128
 739.665 424.335 694.332 433.668 651 459 c 1
 626.333 483 607.167 508.667 593.5 536 c 128
 579.833 563.333 575.333 594.667 580 630 c 1
 608 699 l 1
 630 721.669 654 743.836 680 765.5 c 128
 706 787.167 736.333 800 771 804 c 1
269 676 m 1
 257.667 673.333 248.167 668.333 240.5 661 c 128
 232.833 653.657 225.333 646.323 218 639 c 1
 212 619.667 208.833 604 208.5 592 c 128
 208.167 580 216 566.333 232 551 c 1
 250.667 543.667 268.167 541 284.5 543 c 128
 300.834 545 316.667 551.333 332 562 c 1
 342.667 588.669 342.833 613.836 332.5 637.5 c 128
 322.167 661.167 301 674 269 676 c 1
711 645 m 1
 699.667 627.664 694 611.331 694 596 c 128
 694 580.667 701.667 565.667 717 551 c 1
 733.667 540.333 751.5 536.167 770.5 538.5 c 128
 789.5 540.833 805.667 548.667 819 562 c 1
 831 594.667 831 620.667 819 640 c 128
 807 659.333 782.333 669.333 745 670 c 1
 711 645 l 1
494 420 m 1
 560 417.333 612.5 394.833 651.5 352.5 c 128
 690.5 310.167 715 258.333 725 197 c 1
 729 165 726.833 131.5 718.5 96.5 c 128
 710.167 61.5 707.667 26.6667 711 -8 c 1
 716.333 -38.6667 728.5 -68.6667 747.5 -98 c 128
 766.5 -127.333 787.667 -151.333 811 -170 c 1
 853 -193 l 1
 832.333 -193 812 -188.833 792 -180.5 c 128
 772 -172.167 752.667 -162 734 -150 c 1
 692.665 -110.667 658.832 -72 632.5 -34 c 128
 606.167 4 587.667 51.6667 577 109 c 1
 574 237 l 1
 571.333 254.333 564 266.333 552 273 c 128
 540 279.667 526.667 281 512 277 c 1
 498.667 261.667 491.167 241.667 489.5 217 c 128
 487.848 192.333 488.682 169.667 492 149 c 1
 506 123 l 1
 500 110.333 481.833 106.5 451.5 111.5 c 128
 421.167 116.5 400.333 121.333 389 126 c 1
 361 157.333 350.333 196 357 242 c 128
 363.667 288 376.333 329 395 365 c 1
 408.334 378.333 423.167 390 439.5 400 c 128
 455.833 410 474 416.667 494 420 c 1
EndSplineSet
EndChar

StartChar: u11584
Encoding: 260 71044 4
Width: 1024
Flags: HW
LayerCount: 2
Fore
SplineSet
835 808 m 1
 865 805.333 898 788.167 934 756.5 c 128
 970 724.833 986.333 694 983 664 c 1
 887 638 l 1
 853.667 620.667 815.667 595.167 773 561.5 c 128
 730.333 527.833 703 492.667 691 456 c 1
 795 395 l 1
 841.667 358.333 885.334 313.166 926 259.5 c 128
 966.667 205.833 983.667 147 977 83 c 0
 974.333 62.3333 969.5 42.5 962.5 23.5 c 128
 955.5 4.5 946.667 -14.3333 936 -33 c 1
 870 -111 l 1
 826.667 -147 780.167 -170.833 730.5 -182.5 c 128
 680.833 -194.167 629 -195.333 575 -186 c 1
 485 -151 l 1
 466.333 -133 447 -115.667 427 -99 c 128
 407 -82.3333 388 -64 370 -44 c 1
 202 161 l 1
 43 288 l 1
 79 286.667 111.667 279.167 141 265.5 c 128
 170.333 251.833 200.333 238.333 231 225 c 1
 353 132 l 1
 388.334 99.3333 423.667 65.5 459 30.5 c 128
 494.333 -4.5 536 -27.3333 584 -38 c 1
 618 -38 l 1
 642 -42.6667 664.167 -41.3333 684.5 -34 c 128
 704.833 -26.6667 724.333 -15.6667 743 -1 c 1
 773 28.3333 793.167 60.8333 803.5 96.5 c 128
 813.833 132.167 807 169 783 207 c 1
 757 237 729.667 264.5 701 289.5 c 128
 672.333 314.5 636 322.667 592 314 c 1
 517 213 l 1
 491 170 l 1
 480.333 163.333 466.333 164 449 172 c 128
 431.667 180 417.667 187 407 193 c 1
 381 216.333 364.5 235 357.5 249 c 128
 350.5 263 356.667 285.667 376 317 c 1
 477 491 l 1
 358 618 l 1
 329 661 l 1
 347 696 l 1
 413 768 l 1
 569 756 l 1
 607.667 750.668 652.5 753.335 703.5 764 c 128
 754.5 774.67 798.333 789.336 835 808 c 1
EndSplineSet
EndChar

StartChar: u11585
Encoding: 261 71045 5
Width: 1024
Flags: HW
LayerCount: 2
Fore
SplineSet
799 770 m 1
 817.667 768 840.834 756.667 868.5 736 c 128
 896.167 715.333 914 696.333 922 679 c 1
 924.667 669 925.5 659.333 924.5 650 c 128
 923.5 640.662 920.667 631.328 916 622 c 1
 813 610 l 1
 773 602.667 734.333 582.5 697 549.5 c 128
 659.667 516.5 635 480.667 623 442 c 1
 663.667 417.333 703 391.5 741 364.5 c 128
 779 337.5 809.667 302.667 833 260 c 1
 870 132 l 1
 870 63 l 1
 890.667 45 921.167 24.5 961.5 1.5 c 128
 1001.83 -21.5 1019 -50.3333 1013 -85 c 1
 984 -133 l 1
 975.333 -143.667 966.167 -151 956.5 -155 c 128
 946.833 -159 934.333 -159.333 919 -156 c 1
 908 -105 l 1
 904.667 -84.3333 897.5 -63.8333 886.5 -43.5 c 128
 875.5 -23.1667 862.667 -5.66667 848 9 c 1
 836 -11 824.167 -30 812.5 -48 c 128
 800.833 -66 786 -82 768 -96 c 0
 732 -124 688 -141.167 636 -147.5 c 128
 584 -153.833 536.667 -147 494 -127 c 1
 415 -82 l 1
 341 -13 l 1
 305 31.6667 271 78.6667 239 128 c 128
 207 177.333 168.667 221.333 124 260 c 1
 107.333 273.333 89.3333 285.333 70 296 c 128
 50.6667 306.667 31.6667 318.333 13 331 c 1
 53 329.667 90.8333 320.167 126.5 302.5 c 128
 162.167 284.833 195.667 265 227 243 c 1
 312 175 l 1
 364 123 415.167 76.1667 465.5 34.5 c 128
 515.833 -7.16667 579.667 -10.6667 657 24 c 1
 689 54 708.167 84.8333 714.5 116.5 c 128
 720.833 148.167 712 183.667 688 223 c 1
 672 241.667 651.167 262 625.5 284 c 128
 599.833 306 574.333 310.333 549 297 c 1
 535 282.333 522.667 267.666 512 253 c 128
 501.333 238.333 491.666 222.667 483 206 c 1
 466 180 l 1
 398 212 l 1
 358 260 l 1
 412 414 l 1
 437 482 l 1
 412 508 l 1
 315 636 l 1
 338 687 l 1
 346.667 696.333 355.833 707 365.5 719 c 128
 375.167 731 386.667 737.667 400 739 c 1
 452 727 l 1
 571 727 l 1
 609.667 732.333 647.5 737.833 684.5 743.5 c 128
 721.5 749.167 759.667 758 799 770 c 1
EndSplineSet
EndChar

StartChar: u11586
Encoding: 262 71046 6
Width: 1024
Flags: HW
LayerCount: 2
Fore
SplineSet
594 807 m 1
 619.333 799.664 646.833 786.83 676.5 768.5 c 128
 706.167 750.166 719.667 727.333 717 700 c 1
 705.667 689.333 691.667 682.167 675 678.5 c 128
 658.333 674.833 642.333 670.333 627 665 c 1
 601.667 653 575.667 639.667 549 625 c 128
 522.333 610.333 501.667 589.667 487 563 c 1
 479.667 546.333 476 528 476 508 c 2
 476 451 l 1
 500 443 524.667 433.833 550 423.5 c 128
 575.333 413.167 597.333 399.333 616 382 c 1
 639.333 418 668.167 442.333 702.5 455 c 128
 736.833 467.667 774.667 466.333 816 451 c 1
 833.333 436.333 848.667 421 862 405 c 128
 875.333 389 875.333 369.667 862 347 c 1
 854.667 338.333 846.5 332.666 837.5 330 c 128
 828.5 327.333 818.333 329.333 807 336 c 1
 797 352 786.667 361.833 776 365.5 c 128
 765.333 369.167 751 367.667 733 361 c 1
 705.667 329.667 700.167 305.833 716.5 289.5 c 128
 732.833 273.167 743 253 747 229 c 1
 745.667 211 736.167 199 718.5 193 c 128
 700.833 187 684.667 184.333 670 185 c 1
 648.667 217.667 622.167 247.667 590.5 275 c 128
 558.833 302.333 521.667 317 479 319 c 1
 473 -39 l 1
 503.667 -69.6667 535 -97.6667 567 -123 c 128
 599 -148.333 632.667 -171.667 668 -193 c 1
 622 -193 579.167 -186.5 539.5 -173.5 c 128
 499.833 -160.5 459.333 -143.333 418 -122 c 1
 229 37 l 1
 155 56 l 1
 171.667 72 189.334 84.6667 208 94 c 128
 226.667 103.333 247.334 110 270 114 c 1
 336 114 l 1
 339 325 l 1
 325 332.333 310 331.333 294 322 c 128
 278 312.667 262.667 307.333 248 306 c 1
 233.333 308.667 217.167 323.667 199.5 351 c 128
 181.833 378.334 170.667 399.667 166 415 c 1
 273 456 l 1
 339 465 l 1
 336 582 l 1
 218 689 l 1
 238 736 l 1
 274 771.333 304.333 788.5 329 787.5 c 128
 353.667 786.5 388 784.667 432 782 c 1
 460 782 487 784 513 788 c 128
 539 792 566 798.333 594 807 c 1
EndSplineSet
EndChar

StartChar: u11587
Encoding: 263 71047 7
Width: 1024
Flags: HW
LayerCount: 2
Fore
SplineSet
674 807 m 1
 696 799 719.667 784.333 745 763 c 128
 770.333 741.664 782 719.331 780 696 c 1
 742.665 686 694.332 670.667 635 650 c 128
 575.667 629.333 542.667 596.667 536 552 c 1
 539 441 l 1
 612 414 l 1
 674 376 l 1
 682.667 402.667 698.167 424.833 720.5 442.5 c 128
 742.833 460.167 769 467 799 463 c 1
 872 430 l 1
 885.333 418.667 896.833 407.167 906.5 395.5 c 128
 916.195 383.833 917.361 368.333 910 349 c 1
 904 342.333 897.667 337.5 891 334.5 c 128
 884.333 331.5 876.333 330 867 330 c 1
 855 342 841.833 350 827.5 354 c 128
 813.164 358 798.33 356.333 783 349 c 1
 773.667 339.667 767.5 330.167 764.5 320.5 c 128
 761.5 310.833 761.333 299.666 764 287 c 1
 772.667 278.333 780.667 268.333 788 257 c 128
 795.333 245.667 799 234 799 222 c 1
 789.665 211.333 779.832 201.5 769.5 192.5 c 128
 759.165 183.5 746.332 181.667 731 187 c 1
 706.333 213.667 679.167 239.167 649.5 263.5 c 128
 619.833 287.833 584.667 301 544 303 c 1
 541 238 l 1
 543 199.333 545 152.5 547 97.5 c 128
 549 42.5 544.333 -2 533 -36 c 1
 563 -66.6667 594.167 -95.6667 626.5 -123 c 128
 658.833 -150.333 693.667 -173.667 731 -193 c 1
 695.665 -193.667 659.832 -190.667 623.5 -184 c 128
 587.167 -177.334 552.667 -165.667 520 -149 c 1
 436 -98 l 1
 387 -60 l 1
 358.333 -34.6667 332.833 -12.5 310.5 6.5 c 128
 288.167 25.5 256.667 39.3333 216 48 c 1
 234 64 256 76.5 282 85.5 c 128
 308 94.5 332 101 354 105 c 1
 403 108 l 1
 403 327 l 1
 380.333 333 356.833 331.333 332.5 322 c 128
 308.167 312.667 285.667 309 265 311 c 1
 247.666 315.667 231.833 328.667 217.5 350 c 128
 203.167 371.333 191 390 181 406 c 1
 201.667 419.334 223.834 430.167 247.5 438.5 c 128
 271.167 446.833 295 453.333 319 458 c 1
 400 460 l 1
 398 617 l 1
 376.667 625 355.333 634 334 644 c 128
 312.667 654 289.667 659.667 265 661 c 1
 251 643.664 245.333 625.831 248 607.5 c 128
 250.667 589.164 248 574.331 240 563 c 1
 226 547 208.833 544 188.5 554 c 128
 168.167 564 151.333 574.333 138 585 c 1
 116 607 l 1
 111.333 623.667 110.666 644.5 114 669.5 c 128
 117.333 694.5 122.333 716 129 734 c 1
 173.667 772.667 216.667 786.5 258 775.5 c 128
 299.333 764.5 345 760.667 395 764 c 1
 566 780 l 1
 674 807 l 1
EndSplineSet
EndChar

StartChar: u11588
Encoding: 264 71048 8
Width: 1024
Flags: HW
LayerCount: 2
Fore
SplineSet
390 807 m 1
 434 804 l 1
 459.333 799.333 484.333 790.5 509 777.5 c 128
 533.667 764.5 554.667 749.333 572 732 c 0
 599.333 705.333 623.833 674.667 645.5 640 c 128
 667.167 605.333 681 569.667 687 533 c 0
 692.333 499.667 690.667 465.167 682 429.5 c 128
 673.333 393.833 665.333 359.333 658 326 c 1
 646 253.333 644.667 179.333 654 104 c 128
 663.333 28.6667 691.667 -38.6667 739 -98 c 1
 755.667 -116.667 773.667 -134 793 -150 c 128
 812.333 -166 832.667 -180.333 854 -193 c 1
 828 -193 805.167 -188 785.5 -178 c 128
 765.833 -168 744.667 -156.667 722 -144 c 1
 670 -104 l 1
 589 9 l 1
 561.667 68.3333 544.167 131.5 536.5 198.5 c 128
 528.833 265.5 525.333 332 526 398 c 1
 523 553 l 1
 517 587 501.833 616.667 477.5 642 c 128
 453.167 667.333 423.333 674.333 388 663 c 1
 356.667 633 335.167 605.667 323.5 581 c 128
 311.833 556.333 306.333 522.333 307 479 c 1
 318 409 l 1
 308 389.667 294.5 381.333 277.5 384 c 128
 260.5 386.667 244.333 393.333 229 404 c 2
 171 447 l 1
 174 507 l 1
 174 545.667 177 581.667 183 615 c 128
 189 648.333 202.333 681.667 223 715 c 1
 247 739.667 271.667 760.5 297 777.5 c 128
 322.333 794.5 353.333 804.333 390 807 c 1
EndSplineSet
EndChar

StartChar: u11589
Encoding: 265 71049 9
Width: 1024
Flags: HW
LayerCount: 2
Fore
SplineSet
426 808 m 1
 498 805.333 558.5 777.833 607.5 725.5 c 128
 656.5 673.167 686.667 613 698 545 c 1
 700 525.667 697.167 502.333 689.5 475 c 128
 681.833 447.667 678.333 429.667 679 421 c 1
 726 396 l 2
 746 386 767.5 371.833 790.5 353.5 c 128
 813.5 335.167 827.667 315.667 833 295 c 1
 800 196 l 1
 795.333 190 790.333 185.667 785 183 c 128
 779.667 180.333 772.667 179 764 179 c 1
 751 237 l 1
 746.333 261.667 736.667 284.667 722 306 c 128
 707.333 327.334 689.333 344.667 668 358 c 1
 654 234 l 1
 654.667 174 662.167 114.667 676.5 56 c 128
 690.833 -2.66667 712.667 -57.6667 742 -109 c 1
 756 -123.667 769 -138.333 781 -153 c 128
 793 -167.667 807.667 -180.333 825 -191 c 1
 810.333 -191 796 -187 782 -179 c 128
 768 -171 754.667 -162.333 742 -153 c 1
 720 -132.333 697.5 -111.667 674.5 -91 c 128
 651.5 -70.3333 632 -45.3333 616 -16 c 1
 598.667 19.3333 585 55.6667 575 93 c 128
 565 130.333 556.667 168.333 550 207 c 1
 544 298 l 1
 547 339 l 1
 547 553 l 1
 539.667 595 521.167 628.5 491.5 653.5 c 128
 461.833 678.5 426.333 679 385 655 c 1
 368.333 631 354.666 606.333 344 581 c 128
 333.331 555.667 327.664 528 327 498 c 1
 333 383 l 1
 321 370.333 304.333 368.5 283 377.5 c 128
 261.667 386.5 245.333 395.667 234 405 c 2
 201 432 l 1
 193 506 l 1
 193.667 542.667 198.834 577.167 208.5 609.5 c 128
 218.167 641.833 231.333 674.333 248 707 c 1
 273.333 733.667 299.333 756.5 326 775.5 c 128
 352.667 794.5 386 805.333 426 808 c 1
EndSplineSet
EndChar

StartChar: u1158A
Encoding: 266 71050 10
Width: 1024
Flags: HW
LayerCount: 2
Fore
SplineSet
890 717 m 1
 923 712 l 1
 937 702 955.833 684 979.5 658 c 128
 1003.17 632 1014.34 611.667 1013 597 c 1
 985.667 577 963.667 552.5 947 523.5 c 128
 930.333 494.5 912.333 467.333 893 442 c 1
 631 66 l 1
 571 -24 l 1
 577 -48 l 1
 573 -72 563.167 -89 547.5 -99 c 128
 531.833 -109 513.333 -108.333 492 -97 c 1
 214 205 l 1
 106 317 l 1
 94 325 80 332.833 64 340.5 c 128
 48 348.167 36.3333 359.333 29 374 c 1
 21.6667 396.667 17.1667 418.833 15.5 440.5 c 128
 13.8333 462.167 13 485.333 13 510 c 1
 54 497 l 1
 78 473.667 103 452.667 129 434 c 128
 155 415.333 179 393.333 201 368 c 1
 473 69 l 1
 809 570 l 1
 686 570 l 1
 473 565 l 1
 446.333 569 420.166 571 394.5 571 c 128
 368.833 571 342.333 568 315 562 c 1
 300.333 546.663 291.166 533.329 287.5 522 c 128
 283.833 510.667 280.333 495 277 475 c 1
 280 434 l 1
 269.333 420 253.667 416.833 233 424.5 c 128
 212.333 432.167 196.333 439.667 185 447 c 1
 152 472 l 1
 141.333 491.334 141.333 515.834 152 545.5 c 128
 162.667 575.167 169 599.667 171 619 c 1
 250 682 l 1
 585 679 l 1
 773 695 l 1
 890 717 l 1
EndSplineSet
EndChar

StartChar: u1158B
Encoding: 267 71051 11
Width: 1024
Flags: HW
LayerCount: 2
Fore
SplineSet
525 778 m 1
 569 779.333 614.833 772 662.5 756 c 128
 710.172 740 722.339 704 699 648 c 1
 682.333 630.667 662.833 620.167 640.5 616.5 c 128
 618.166 612.833 596.333 618 575 632 c 1
 619 640 l 1
 626.333 646 631 651.5 633 656.5 c 128
 635 661.5 635 669 633 679 c 1
 607.667 701.667 579.667 710.5 549 705.5 c 128
 518.333 700.5 489.333 689.667 462 673 c 1
 451 648 l 1
 465.667 635.333 482.333 626.667 501 622 c 128
 519.667 617.333 536 607.667 550 593 c 1
 558.671 579.667 567.338 562.167 576 540.5 c 128
 584.667 518.833 593.667 507 603 505 c 1
 926 521 l 1
 946.67 516.333 965.837 502 983.5 478 c 128
 1001.17 454 1010.34 431.667 1011 411 c 1
 970 383 l 1
 898 309 l 1
 710 60 l 1
 600 -95 l 1
 606.667 -101.667 609.667 -108.333 609 -115 c 128
 608.333 -121.667 606.333 -128.667 603 -136 c 1
 588.333 -152 573.833 -160.667 559.5 -162 c 128
 545.165 -163.333 529.331 -157.667 512 -145 c 1
 379 -26 l 2
 338.333 10 297.667 47.3333 257 86 c 128
 216.333 124.667 171.333 157.333 122 184 c 1
 47 206 l 1
 30.3333 220 20.1667 240.667 16.5 268 c 128
 12.8333 295.333 14 319 20 339 c 1
 45.3333 345 70.6667 340.333 96 325 c 128
 121.333 309.667 145.667 296.667 169 286 c 1
 293 195 l 1
 503 10 l 1
 793 389 l 1
 351 391 l 1
 338.333 375 333.333 358 336 340 c 128
 338.667 322 337.333 308.667 332 300 c 1
 316 282.667 296.833 278.667 274.5 288 c 128
 252.167 297.333 232.667 306 216 314 c 1
 197.333 334 189.167 358 191.5 386 c 128
 193.833 414 203 439.667 219 463 c 1
 246.333 488.333 279.833 503.5 319.5 508.5 c 128
 359.167 513.5 397.333 513 434 507 c 1
 509 505 l 1
 516.333 509.667 517.833 517.667 513.5 529 c 128
 509.167 540.333 504.667 548.667 500 554 c 1
 476 576 l 1
 452.667 584.671 428 591.338 402 596 c 128
 376 600.669 357.333 617.336 346 646 c 0
 342 656 340.667 665.667 342 675 c 128
 343.333 684.333 347.333 694 354 704 c 1
 376.667 726 402.833 743.333 432.5 756 c 128
 462.167 768.667 493 776 525 778 c 1
EndSplineSet
EndChar

StartChar: u1158C
Encoding: 268 71052 12
Width: 1024
Flags: HW
LayerCount: 2
Fore
SplineSet
884 726 m 1
 914 717.333 944.5 702.333 975.5 681 c 128
 1006.5 659.667 1018 631.667 1010 597 c 1
 884 569 l 1
 839.333 545 801.667 514.333 771 477 c 128
 740.333 439.667 708 403 674 367 c 1
 744 321 792.333 263.833 819 195.5 c 128
 845.66 127.167 837.327 55.6667 794 -19 c 1
 750 -63.6667 699.667 -92 643 -104 c 128
 586.333 -116 528.333 -108.333 469 -81 c 1
 399 -42 l 1
 271 84 l 1
 239 128 201.333 178.833 158 236.5 c 128
 114.667 294.167 66.3333 331.333 13 348 c 1
 86 334 l 1
 226 250 l 1
 282.667 193.333 343.667 134.833 409 74.5 c 128
 474.333 14.1667 550.667 1.66667 638 37 c 1
 660.672 59 675.338 84 682 112 c 128
 688.667 140 685 169 671 199 c 1
 659 213 646.5 225.667 633.5 237 c 128
 620.5 248.333 604 250.667 584 244 c 1
 563.333 219.333 547 201.333 535 190 c 128
 523 178.667 501 179 469 191 c 1
 454.333 204.333 443.333 218.5 436 233.5 c 128
 428.667 248.5 430.333 265 441 283 c 1
 666 563 l 1
 343 563 l 1
 327 543.667 320.667 527.167 324 513.5 c 128
 327.333 499.831 324.333 485.665 315 471 c 1
 302.333 456.319 281.666 455.153 253 467.5 c 128
 224.333 479.833 202.333 490.333 187 499 c 1
 172.333 523.669 170.167 550.335 180.5 579 c 128
 190.833 607.668 203 633.335 217 656 c 1
 247 684.667 273.167 699 295.5 699 c 128
 317.833 699 347 695 383 687 c 1
 441 684 l 1
 593 687 l 1
 694 689 l 1
 884 726 l 1
EndSplineSet
EndChar

StartChar: u1158D
Encoding: 269 71053 13
Width: 1024
Flags: HW
LayerCount: 2
Fore
SplineSet
897 766 m 1
 918.333 764 941.667 753.167 967 733.5 c 128
 992.333 713.833 1007 694 1011 674 c 1
 1003 634 l 1
 987 620 966.833 612.333 942.5 611 c 128
 918.163 609.667 895.33 605 874 597 c 1
 830.667 572.333 793.167 539.833 761.5 499.5 c 128
 729.833 459.167 699.667 419.333 671 380 c 1
 705.667 356.667 737.167 325.333 765.5 286 c 128
 793.833 246.667 812 206.667 820 166 c 1
 820 80 l 1
 827.333 69.3333 847.667 54.5 881 35.5 c 128
 914.333 16.5 937.667 -3 951 -23 c 1
 959 -41 958.833 -59 950.5 -77 c 128
 942.167 -95 935 -111.333 929 -126 c 1
 921 -134.667 913.667 -141.333 907 -146 c 128
 900.333 -150.667 891.333 -151.667 880 -149 c 1
 866 -97 l 1
 860 -79 851.167 -61.1667 839.5 -43.5 c 128
 827.833 -25.8333 814.667 -9.33333 800 6 c 1
 789.333 -11.3333 779 -27.5 769 -42.5 c 128
 759 -57.5 745.667 -72 729 -86 c 1
 681.667 -122 630 -133.333 574 -120 c 128
 518 -106.667 467.667 -85.6667 423 -57 c 1
 312 46 l 1
 264.667 104 219.667 150.833 177 186.5 c 128
 134.333 222.167 79.3333 257 12 291 c 1
 50.6667 290.332 88 282.666 124 268 c 128
 160 253.333 195 237.333 229 220 c 1
 306 166 l 1
 347.333 126 395.5 86.8333 450.5 48.5 c 128
 505.5 10.1667 562 5.33333 620 34 c 1
 639.333 52.6667 653.333 73.6667 662 97 c 128
 670.667 120.333 673 145 669 171 c 1
 646 223 l 1
 636.662 232.333 628.328 238.667 621 242 c 128
 613.667 245.333 603.667 245.667 591 243 c 1
 551 191 l 1
 539 183 524.167 184.167 506.5 194.5 c 128
 488.833 204.833 474.333 213.333 463 220 c 1
 446.333 244 438.333 260.5 439 269.5 c 128
 439.667 278.5 445.667 295.333 457 320 c 1
 651 594 l 1
 549 597 l 1
 513.666 603.667 475 609.167 433 613.5 c 128
 391 617.833 353.333 614.333 320 603 c 1
 307.333 588.333 301.666 574.5 303 561.5 c 128
 304.333 548.5 305.333 533.667 306 517 c 1
 302.667 484.332 284.667 471.666 252 479 c 128
 219.333 486.333 194.333 495.333 177 506 c 1
 146 537 l 1
 138.667 563.667 140 592.667 150 624 c 128
 160 655.333 172 682.667 186 706 c 1
 218.667 735.333 255.667 749.5 297 748.5 c 128
 338.333 747.5 378.333 742.667 417 734 c 1
 478.333 724.667 559.167 722.167 659.5 726.5 c 128
 759.833 730.833 839 744 897 766 c 1
EndSplineSet
EndChar

StartChar: u1158E
Encoding: 270 71054 14
Width: 1024
Flags: HW
LayerCount: 2
Fore
SplineSet
580 808 m 1
 716 749 l 1
 711 681 l 1
 686.333 673.667 641.5 665 576.5 655 c 128
 511.5 645 485.333 608.333 498 545 c 1
 593 513 l 1
 743 395 l 1
 784.333 337.667 802.333 271 797 195 c 128
 791.667 119 792 49.3333 798 -14 c 1
 808 -54 827.833 -86.1667 857.5 -110.5 c 128
 887.167 -134.833 911.334 -161.667 930 -191 c 1
 914 -195.667 897.667 -195.5 881 -190.5 c 128
 864.333 -185.5 848.667 -178.333 834 -169 c 1
 804 -140.333 775.833 -108.833 749.5 -74.5 c 128
 723.167 -40.1667 706 -0.333332 698 45 c 1
 693.333 119.667 685.667 199.333 675 284 c 128
 664.333 368.667 610 414.667 512 422 c 1
 502 403.333 497.667 383.333 499 362 c 128
 500.333 340.667 501.333 319.667 502 299 c 1
 498 13 l 1
 490.667 -28.3333 473.333 -55.8333 446 -69.5 c 128
 418.667 -83.1667 387.333 -83 352 -69 c 1
 340.667 -41.6667 316.667 -19.8333 280 -3.5 c 128
 243.333 12.8333 210 21.3333 180 22 c 1
 98 18 l 1
 98 86 l 1
 92 128 93.5 168.167 102.5 206.5 c 128
 111.5 244.833 125 283.333 143 322 c 1
 175 356 202.833 386.833 226.5 414.5 c 128
 250.167 442.167 284.667 467.333 330 490 c 1
 344 496 353.167 502.5 357.5 509.5 c 128
 361.833 516.5 361.667 526.667 357 540 c 1
 248 622 l 1
 207 631 l 1
 198 672 l 1
 266 763 l 1
 457 768 l 1
 580 808 l 1
266 299 m 1
 240.666 255.667 223.833 209.833 215.5 161.5 c 128
 207.168 113.167 210.335 65.3333 225 18 c 1
 248.333 10.6667 272.5 9 297.5 13 c 128
 322.5 17 345.333 26 366 40 c 1
 374.667 82.6667 378 125 376 167 c 128
 374 209 372.333 251.667 371 295 c 1
 372.333 309.667 372.333 326.5 371 345.5 c 128
 369.667 364.5 360.333 375 343 377 c 1
 266 299 l 1
EndSplineSet
EndChar

StartChar: u1158F
Encoding: 271 71055 15
Width: 1024
Flags: HW
LayerCount: 2
Fore
SplineSet
831 783 m 1
 996 715 l 1
 1000 687 l 1
 836 614 l 1
 836 450 l 1
 833.333 362 835.333 274.5 842 187.5 c 128
 848.667 100.5 875.334 19 922 -57 c 1
 1014 -162 l 1
 995.333 -168.667 976.5 -168.833 957.5 -162.5 c 128
 938.5 -156.167 920.667 -146.667 904 -134 c 1
 808 -29 l 1
 758 66 l 1
 607 126 l 1
 537 173.333 495.167 225.5 481.5 282.5 c 128
 467.833 339.5 479.333 404.333 516 477 c 1
 644 637 l 1
 548 642 l 1
 324 683 l 1
 303.333 647 299 621.167 311 605.5 c 128
 323 589.833 327.333 565.333 324 532 c 1
 269 368 l 1
 315 258 l 1
 315 135 l 1
 315.667 101.667 307.5 67.6667 290.5 33 c 128
 273.5 -1.66667 246.667 -15 210 -7 c 1
 195.333 15.6667 189 38.6667 191 62 c 128
 193 85.3333 198 109.667 206 135 c 1
 223.333 154.333 232.667 180.333 234 213 c 128
 235.333 245.667 232 274.333 224 299 c 1
 201.333 297.667 159.333 293 98 285 c 128
 36.6667 277 11.6667 300 23 354 c 1
 81 371.333 133 398.667 179 436 c 128
 225 473.333 249 523.667 251 587 c 1
 213.666 605 186.833 614 170.5 614 c 128
 154.167 614 156.667 646 178 710 c 1
 228.667 757.333 272.833 776.5 310.5 767.5 c 128
 348.167 758.5 395.333 751.667 452 747 c 1
 740 747 l 1
 831 783 l 1
621 418 m 1
 590.333 355.333 581.333 308 594 276 c 128
 606.667 244 637 206 685 162 c 1
 740 144 l 1
 722 395 l 1
 722.667 411.667 723.167 431 723.5 453 c 128
 723.833 475 718.667 492.333 708 505 c 1
 621 418 l 1
EndSplineSet
EndChar

StartChar: u11590
Encoding: 272 71056 16
Width: 1024
Flags: HW
LayerCount: 2
Fore
SplineSet
850 806 m 1
 878 798 914.167 783.167 958.5 761.5 c 128
 1002.83 739.833 1018 714.333 1004 685 c 1
 816 623 l 1
 800.667 603 792.667 575.333 792 540 c 128
 791.333 504.667 791.333 474.333 792 449 c 1
 790.667 363.667 794 279.167 802 195.5 c 128
 810 111.833 832.333 30.3333 869 -49 c 1
 889 -67 912.667 -89.5 940 -116.5 c 128
 967.333 -143.5 982.333 -169.333 985 -194 c 1
 966.333 -197.334 943.167 -190.667 915.5 -174 c 128
 887.833 -157.333 866 -143 850 -131 c 1
 782 -61 736.5 16.5 713.5 101.5 c 128
 690.5 186.5 679.667 276.333 681 371 c 2
 685 647 l 1
 598 661 l 1
 425 666 l 1
 406.333 669.333 389.166 674.167 373.5 680.5 c 128
 357.833 686.833 339.333 688.333 318 685 c 1
 313.338 672.333 315.671 657.167 325 639.5 c 128
 334.336 621.833 338.669 603.333 338 584 c 1
 284 439 l 1
 304 337 l 1
 299 193 l 1
 296.332 164.333 289.666 133.167 279 99.5 c 128
 268.333 65.8333 244.333 53.3333 207 62 c 1
 186.333 98 183.5 133.5 198.5 168.5 c 128
 213.5 203.5 226 240.667 236 280 c 0
 239.333 295.334 240.5 312.667 239.5 332 c 128
 238.5 351.333 231 364.333 217 371 c 1
 193.667 349.667 164.333 337 129 333 c 128
 93.6666 329 61.6666 332 33 342 c 1
 19 381 l 1
 62.3333 403.667 109.167 432 159.5 466 c 128
 209.833 500 237 545.667 241 603 c 1
 207.667 621 187.5 634.167 180.5 642.5 c 128
 173.5 650.833 180.667 676.333 202 719 c 1
 278.667 774.333 383.5 790.333 516.5 767 c 128
 649.5 743.667 760.667 756.667 850 806 c 1
EndSplineSet
EndChar

StartChar: u11591
Encoding: 273 71057 17
Width: 1024
Flags: HW
LayerCount: 2
Fore
SplineSet
794 806 m 1
 816 803.333 838.667 789.333 862 764 c 128
 885.333 738.664 894.333 714.331 889 691 c 1
 808 634 l 1
 808 462 l 1
 819.333 370 825.833 273.167 827.5 171.5 c 128
 829.17 69.8333 848.337 -21.6667 885 -103 c 1
 901.668 -117 921.335 -129.833 944 -141.5 c 128
 966.667 -153.167 978.667 -169 980 -189 c 1
 964.663 -198.333 950.83 -201 938.5 -197 c 128
 926.167 -193 913 -185.667 899 -175 c 1
 875 -151.667 851 -128.833 827 -106.5 c 128
 803 -84.1667 782.333 -57.3334 765 -26 c 1
 749 21.3333 734.5 66.5 721.5 109.5 c 128
 708.5 152.5 667.333 164.667 598 146 c 1
 585.333 133.333 569.333 124.667 550 120 c 128
 530.667 115.334 513 117.667 497 127 c 1
 387 227 l 1
 366.333 229 345.666 224.667 325 214 c 128
 304.333 203.333 282 203 258 213 c 1
 228.666 227.667 202.833 249.5 180.5 278.5 c 128
 158.167 307.5 144 338.333 138 371 c 1
 134 414 l 1
 117.333 433.333 99 447.833 79 457.5 c 128
 59 467.167 50 484.333 52 509 c 1
 100 562 l 1
 120 576 141.167 580.167 163.5 574.5 c 128
 185.833 568.833 207.667 566.333 229 567 c 1
 287 600 l 1
 301.667 597.333 325 588.333 357 573 c 128
 389 557.658 413.333 552.325 430 557 c 1
 435 672 l 1
 401 715 l 1
 417 719.667 429.167 722.667 437.5 724 c 128
 445.835 725.333 457.668 724 473 720 c 1
 540 677 l 1
 546.667 659.667 547.667 642.667 543 626 c 128
 538.333 609.333 534.333 592.667 531 576 c 1
 531 375 l 1
 527 355 522.333 327.5 517 292.5 c 128
 511.667 257.5 516.333 232.667 531 218 c 1
 717 222 l 1
 703 639 l 1
 707.667 669.667 716.667 702.5 730 737.5 c 128
 743.333 772.5 764.667 795.333 794 806 c 1
425 509 m 1
 395 492.333 365.333 478.833 336 468.5 c 128
 306.667 458.167 280.667 443 258 423 c 1
 246 404.333 240.333 382 241 356 c 128
 241.667 330 249 309.333 263 294 c 1
 421 304 l 1
 429 333.333 434 366.833 436 404.5 c 128
 438 442.167 434.333 477 425 509 c 1
EndSplineSet
EndChar

StartChar: u11592
Encoding: 274 71058 18
Width: 1024
Flags: HW
LayerCount: 2
Fore
SplineSet
818 795 m 1
 844.667 792.333 870.5 777.5 895.5 750.5 c 128
 920.5 723.5 933.667 697.667 935 673 c 1
 827 633 l 1
 784.333 589 772.667 536.167 792 474.5 c 128
 811.333 412.833 833.333 360.667 858 318 c 1
 880 298.667 908 278.833 942 258.5 c 128
 976 238.166 997.667 223.333 1007 214 c 1
 1011 182 l 1
 987 175.333 964.167 179 942.5 193 c 128
 920.833 207 898.667 218.333 876 227 c 1
 836 265 802 299.333 774 330 c 128
 746 360.667 723 403 705 457 c 1
 692 579 l 1
 696 606 l 1
 678 620 645 617.833 597 599.5 c 128
 549 581.166 514.333 568.333 493 561 c 1
 399 480 l 1
 295 345 l 1
 228 281 l 1
 296.667 235 362.167 170 424.5 86 c 128
 486.833 2 512.667 -83 502 -169 c 1
 466 -182 l 1
 431.333 -143.333 406.5 -100 391.5 -52 c 128
 376.5 -4 353.333 41 322 83 c 1
 299.333 110.333 273.333 136 244 160 c 128
 214.667 184 183.667 202 151 214 c 1
 84 218 l 1
 65.3333 228 48.8333 243.167 34.5 263.5 c 128
 20.1667 283.833 12.6667 305 12 327 c 1
 66.6667 343.667 117.5 367.667 164.5 399 c 128
 211.5 430.333 252 470.667 286 520 c 1
 268 536.667 248.167 551.667 226.5 565 c 128
 204.833 578.333 185.667 595 169 615 c 1
 188.333 629.667 203 648 213 670 c 128
 223 692 238.333 709.667 259 723 c 1
 530 714 l 1
 710 759 l 1
 750 727 l 1
 818 795 l 1
EndSplineSet
EndChar

StartChar: u11593
Encoding: 275 71059 19
Width: 1024
Flags: HW
LayerCount: 2
Fore
SplineSet
793 806 m 1
 819 804.666 847.333 793.333 878 772 c 128
 908.674 750.666 919.34 727.333 910 702 c 1
 875.333 676 829.5 662.333 772.5 661 c 128
 715.5 659.667 674.667 646 650 620 c 1
 650 451 l 1
 676 140 l 1
 681.333 98.6666 684.167 60.3333 684.5 25 c 128
 684.833 -10.3333 693.667 -47 711 -85 c 1
 731 -101.667 754.833 -116.833 782.5 -130.5 c 128
 810.17 -144.167 825.336 -162.333 828 -185 c 1
 802.665 -197.667 774.832 -196.333 744.5 -181 c 128
 714.166 -165.667 688.333 -151 667 -137 c 1
 638.333 -108.333 617 -81.1667 603 -55.5 c 128
 589 -29.8333 575.667 2 563 40 c 1
 552.333 67.3334 530 97.3334 496 130 c 128
 462 162.667 432.667 187.667 408 205 c 1
 252 261 l 1
 187 248 l 1
 113 343 l 1
 122 386 l 1
 161 382 l 1
 205 386 256 412.5 314 461.5 c 128
 372 510.5 407.667 554.667 421 594 c 1
 295 698 l 1
 347 715 l 1
 361 728.333 371.333 742 378 756 c 128
 384.667 770 399 779.667 421 785 c 1
 486 776 l 1
 534.668 775.333 585.334 776.833 638 780.5 c 128
 690.668 784.167 742.335 792.667 793 806 c 1
473 430 m 1
 369 330 l 1
 520 222 l 1
 550 213 l 1
 542 521 l 1
 473 430 l 1
EndSplineSet
EndChar

StartChar: u11594
Encoding: 276 71060 20
Width: 1024
Flags: HW
LayerCount: 2
Fore
SplineSet
681 808 m 1
 696.333 802.667 715 793 737 779 c 128
 759 765 775 752.667 785 742 c 1
 789 736.667 793.167 731.667 797.5 727 c 128
 801.833 722.333 804.333 717 805 711 c 0
 806.333 705 806.167 699.333 804.5 694 c 128
 802.833 688.656 801 683.323 799 678 c 1
 789 668 780.167 663.167 772.5 663.5 c 128
 764.833 663.833 754.667 663.667 742 663 c 1
 698 653 l 2
 678.664 649 658.831 639.667 638.5 625 c 128
 618.167 610.333 603 594.667 593 578 c 1
 589 568 587 557.333 587 546 c 2
 587 512 l 1
 586 474 l 1
 590.667 472.667 597.5 474.833 606.5 480.5 c 128
 615.5 486.167 622.333 490.333 627 493 c 0
 642.333 500.333 659.167 505.5 677.5 508.5 c 128
 695.833 511.5 713 511.667 729 509 c 0
 783.667 498.333 828 472.5 862 431.5 c 128
 896 390.5 917.333 343.333 926 290 c 1
 926 257 l 1
 923 249 l 1
 915 213 l 1
 895 171 l 1
 853 120 l 1
 837 105.333 819.167 93.3333 799.5 84 c 128
 779.833 74.6667 759 68 737 64 c 1
 704 62 l 1
 692 60 677.833 60.8333 661.5 64.5 c 128
 645.167 68.1667 631 73 619 79 c 1
 589 96 l 2
 587.649 96 585.815 96.8333 583.5 98.5 c 128
 581.149 100.167 579.316 100.667 578 100 c 1
 578 53 l 2
 578 33.6667 580 14.5 584 -4.5 c 128
 588 -23.5 593 -41.6667 599 -59 c 1
 615 -98 l 1
 632 -123 l 2
 637.333 -130.333 643.167 -137 649.5 -143 c 128
 655.833 -149 662 -155 668 -161 c 1
 674.667 -166.333 683.5 -171.833 694.5 -177.5 c 128
 705.5 -183.167 712 -187.333 714 -190 c 1
 684 -191 l 1
 664.667 -188.334 645.667 -183.667 627 -177 c 128
 608.333 -170.333 590.667 -161.333 574 -150 c 2
 549 -132 l 1
 507 -89 l 2
 496.333 -77.6667 487.333 -63.3334 480 -46 c 128
 472.667 -28.6667 465.333 -12.6667 458 2 c 1
 444 76 l 1
 441 107 l 1
 425 99 l 1
 421 94.3332 415.667 90.6665 409 88 c 128
 402.332 85.3333 395.665 83 389 81 c 1
 363 67.6667 334 61.8333 302 63.5 c 128
 270 65.1667 240.333 72.6667 213 86 c 1
 181 106 l 1
 170.333 116 159.667 126.5 149 137.5 c 128
 138.333 148.5 129.333 161 122 175 c 0
 104.667 210.333 96.5 249.167 97.5 291.5 c 128
 98.5 333.833 109.667 372 131 406 c 1
 153 432 l 2
 167.667 448.667 185.167 463 205.5 475 c 128
 225.833 487 246.667 495 268 499 c 1
 310 505 l 1
 310 505 310 505 348 497 c 0
 360.667 494.333 372.667 490.333 384 485 c 2
 409 473 l 1
 441 449 l 1
 441 563 l 1
 408 587 l 1
 398 595.667 388.5 605 379.5 615 c 128
 370.5 625 361.667 635.333 353 646 c 0
 349.667 650 345.833 654.667 341.5 660 c 128
 337.167 665.333 334.667 671 334 677 c 1
 339.333 677.677 343.5 681.344 346.5 688 c 128
 349.5 694.677 352 700.344 354 705 c 0
 358.667 714.333 364.833 725.5 372.5 738.5 c 128
 380.167 751.5 388.667 760.667 398 766 c 1
 409.333 771.333 422 773.833 436 773.5 c 128
 450 773.167 463 772 475 770 c 1
 508 771 l 1
 538 771 l 1
 590 776 l 2
 598 777.333 609.167 779.667 623.5 783 c 128
 637.833 786.333 648 790 654 794 c 0
 658.667 796.667 663 799.5 667 802.5 c 128
 671 805.5 675.667 807.333 681 808 c 1
700 369 m 1
 683.333 363.667 668 355.833 654 345.5 c 128
 640 335.167 626.667 323.667 614 311 c 1
 590 282 l 1
 581 264 l 1
 581 254 586 244 596 234 c 128
 606 224 614.667 215.667 622 209 c 1
 656 194 l 1
 678 190 696.5 190.833 711.5 196.5 c 128
 726.5 202.167 741.333 212.667 756 228 c 1
 762 238.667 766.833 250 770.5 262 c 128
 774.167 274 775 286.667 773 300 c 0
 770.333 318 762.333 333.833 749 347.5 c 128
 735.664 361.167 719.331 368.333 700 369 c 1
316 354 m 1
 296.667 353.333 282 349 272 341 c 128
 262 333 250.667 322.667 238 310 c 1
 225 276 l 1
 224.333 265.333 226.667 253.5 232 240.5 c 128
 237.333 227.5 243.333 217.333 250 210 c 1
 278 197.333 303.833 196 327.5 206 c 128
 351.167 216 374.333 229.333 397 246 c 1
 440 296 l 1
 442.667 301.333 440.167 305.5 432.5 308.5 c 128
 424.833 311.5 418 314.667 412 318 c 1
 403.332 324 392.665 330.167 380 336.5 c 128
 367.333 342.833 355.333 347.333 344 350 c 1
 316 354 l 1
EndSplineSet
EndChar

StartChar: u11595
Encoding: 277 71061 21
Width: 1024
Flags: HW
LayerCount: 2
Fore
SplineSet
793 780 m 5
 823 768 823 768 858.5 735.5 c 132
 894 703 894 703 897 672 c 5
 880 659 880 659 848.5 659.5 c 132
 817 660 817 660 780 629 c 5
 729 569 729 569 748 490 c 132
 767 411 767 411 806 356 c 5
 892 274 l 5
 925 258 925 258 965 239.5 c 132
 1005 221 1005 221 1014 187 c 5
 976 176 976 176 943.5 189.5 c 132
 911 203 911 203 875 222 c 5
 797 278 l 5
 762 308 762 308 735.5 349.5 c 132
 709 391 709 391 689 434 c 5
 677 464 677 464 668.5 532 c 132
 660 600 660 600 650 612 c 5
 602 623 602 623 556 600 c 132
 510 577 510 577 464 564 c 5
 444 546 444 546 424.5 531 c 132
 405 516 405 516 403 486 c 5
 488 426 488 426 555 346 c 132
 622 266 622 266 667 174 c 5
 687 141 687 141 706.5 104 c 132
 726 67 726 67 715 31 c 5
 703 19 703 19 691 18 c 132
 679 17 679 17 663 18 c 5
 597 92 597 92 559 183 c 132
 521 274 521 274 451 352 c 4
 429 376 429 376 406.5 407 c 132
 384 438 384 438 351 447 c 5
 204 296 l 5
 295 235 l 5
 348 191 348 191 395.5 133.5 c 132
 443 76 443 76 473 14 c 5
 495 -25 495 -25 514.5 -67.5 c 132
 534 -110 534 -110 520 -155 c 5
 505 -170 505 -170 492 -168.5 c 132
 479 -167 479 -167 460 -159 c 5
 402 -64 402 -64 351.5 34.5 c 132
 301 133 301 133 213 213 c 5
 162 247 162 247 117.5 242.5 c 132
 73 238 73 238 31 296 c 5
 14 347 l 5
 75 366 75 366 124 394.5 c 132
 173 423 173 423 217 469 c 5
 237 485 237 485 261.5 509 c 132
 286 533 286 533 282 560 c 5
 255 577 255 577 226 591.5 c 132
 197 606 197 606 182 638 c 5
 269 728 l 5
 399 715 l 6
 442 710 442 710 542.5 722 c 132
 643 734 643 734 685 746 c 5
 737 733 l 5
 793 780 l 5
EndSplineSet
EndChar

StartChar: u11596
Encoding: 278 71062 22
Width: 1024
Flags: HW
LayerCount: 2
Fore
SplineSet
587 808 m 5
 634 793 634 793 679.5 762 c 132
 725 731 725 731 719 680 c 5
 563 648 l 5
 506 608 506 608 488 553.5 c 132
 470 499 470 499 472 436 c 5
 587 380 l 5
 607 428 l 5
 637 482 637 482 687.5 494 c 132
 738 506 738 506 787 476 c 5
 813 453 813 453 829 433.5 c 132
 845 414 845 414 839 380 c 5
 814 372 814 372 795 380 c 132
 776 388 776 388 755 404 c 5
 744 417 744 417 729 430.5 c 132
 714 444 714 444 695 440 c 5
 664 386 664 386 684.5 336.5 c 132
 705 287 705 287 735 237 c 5
 744 219 744 219 750 192.5 c 132
 756 166 756 166 739 153 c 5
 722 145 722 145 702.5 154.5 c 132
 683 164 683 164 667 173 c 5
 631 201 l 5
 619 237 l 5
 606 269 606 269 557 304 c 132
 508 339 508 339 476 348 c 5
 468 241 l 5
 472 -43 l 5
 579 -127 l 5
 611 -140 611 -140 638.5 -143.5 c 132
 666 -147 666 -147 675 -179 c 5
 626 -206 626 -206 553 -178.5 c 132
 480 -151 480 -151 436 -119 c 5
 328 13 l 5
 272 121 l 5
 252 139 252 139 223.5 149 c 132
 195 159 195 159 184 185 c 5
 207 200 207 200 227 208.5 c 132
 247 217 247 217 276 213 c 6
 348 201 l 5
 348 556 l 5
 309 589 309 589 262 611.5 c 132
 215 634 215 634 200 688 c 5
 236 704 l 5
 255 723 255 723 265.5 744 c 132
 276 765 276 765 304 772 c 5
 388 764 l 5
 439 763 439 763 487.5 771.5 c 132
 536 780 536 780 587 808 c 5
EndSplineSet
EndChar

StartChar: u11597
Encoding: 279 71063 23
Width: 1024
Flags: HW
LayerCount: 2
Fore
SplineSet
516 808 m 5
 559 795 559 795 624 762.5 c 132
 689 730 689 730 684 682 c 5
 545 653 l 5
 496 629 496 629 498 569 c 132
 500 509 500 509 503 464 c 5
 596 430 l 5
 629 493 l 5
 663 523 663 523 708.5 521.5 c 132
 754 520 754 520 793 506 c 5
 826 475 826 475 853.5 444.5 c 132
 881 414 881 414 894 372 c 5
 879 355 879 355 866.5 354.5 c 132
 854 354 854 354 835 367 c 5
 804 404 804 404 764.5 440 c 132
 725 476 725 476 671 447 c 5
 657 423 657 423 661 409 c 132
 665 395 665 395 675 372 c 5
 703 343 703 343 730.5 295 c 132
 758 247 758 247 759 208 c 5
 741 195 741 195 724 195 c 132
 707 195 707 195 688 208 c 5
 617 283 l 5
 610 324 610 324 581 353 c 132
 552 382 552 382 507 393 c 5
 512 140 l 5
 503 -11 l 5
 482 -57 l 5
 513 -83 513 -83 580.5 -124 c 132
 648 -165 648 -165 659 -183 c 5
 611 -210 611 -210 557 -180 c 132
 503 -150 503 -150 457 -128 c 5
 400 -74 400 -74 351.5 -21.5 c 132
 303 31 303 31 268 103 c 5
 255 120 255 120 227 130 c 132
 199 140 199 140 201 161 c 5
 232 170 232 170 262.5 174 c 132
 293 178 293 178 327 178 c 5
 377 170 l 5
 381 283 l 5
 364 640 l 5
 345 661 345 661 315.5 679 c 132
 286 697 286 697 259 687 c 5
 251 636 l 5
 266 621 266 621 271 612 c 132
 276 603 276 603 280 586 c 5
 244 565 244 565 211.5 577 c 132
 179 589 179 589 142 582 c 5
 134 615 134 615 142.5 660.5 c 132
 151 706 151 706 167 737 c 5
 202 759 202 759 238.5 769.5 c 132
 275 780 275 780 318 775 c 5
 394 758 l 5
 428 764 428 764 454.5 776 c 132
 481 788 481 788 516 808 c 5
EndSplineSet
EndChar

StartChar: u11598
Encoding: 280 71064 24
Width: 1024
Flags: HW
LayerCount: 2
Fore
SplineSet
748 790 m 5
 786 778 786 778 823.5 750 c 132
 861 722 861 722 863 683 c 5
 794 656 l 5
 721 593 721 593 718 522 c 132
 715 451 715 451 752 369 c 5
 803 314 803 314 834 280.5 c 132
 865 247 865 247 942 221 c 5
 962 213 962 213 986 201.5 c 132
 1010 190 1010 190 1011 170 c 5
 983 152 983 152 948.5 169 c 132
 914 186 914 186 882 197 c 5
 785 258 l 5
 669 396 l 5
 627 508 l 5
 623 563 l 5
 589 588 589 588 538 558 c 132
 487 528 487 528 456 512 c 5
 325 399 325 399 234.5 320 c 132
 144 241 144 241 178 49 c 5
 269 -44 269 -44 358.5 -68.5 c 132
 448 -93 448 -93 576 -57 c 5
 613 -12 613 -12 667 -14.5 c 132
 721 -17 721 -17 771 -29 c 5
 785 -71 l 5
 691 -159 691 -159 561 -171.5 c 132
 431 -184 431 -184 312 -159 c 5
 192 -117 l 5
 67 -25 l 5
 2 61 2 61 18 161.5 c 132
 34 262 34 262 86 346 c 5
 142 405 142 405 208.5 482.5 c 132
 275 560 275 560 345 600 c 5
 442 642 l 5
 553 702 l 5
 562 730 l 5
 609 730 l 5
 650 674 l 5
 748 790 l 5
EndSplineSet
EndChar

StartChar: u11599
Encoding: 281 71065 25
Width: 1024
Flags: HW
LayerCount: 2
Fore
SplineSet
492 758 m 5
 545 739 545 739 558.5 713.5 c 132
 572 688 572 688 602 663 c 5
 803 572 l 5
 935 481 935 481 993 316 c 132
 1051 151 1051 151 966 7 c 5
 923 -37 923 -37 866.5 -70.5 c 132
 810 -104 810 -104 751 -122 c 5
 680 -141 680 -141 523.5 -144.5 c 132
 367 -148 367 -148 291 -127 c 5
 119 -41 l 5
 47 33 47 33 25 131.5 c 132
 3 230 3 230 47 323 c 5
 162 462 l 5
 287 572 l 5
 332 607 332 607 400.5 631.5 c 132
 469 656 469 656 492 710 c 5
 492 758 l 5
583 581 m 5
 458 549 458 549 360 479.5 c 132
 262 410 262 410 177 323 c 5
 146 274 146 274 132 216.5 c 132
 118 159 118 159 148 108 c 5
 220 45 l 5
 363 -12 l 5
 454 -30 454 -30 589.5 -33 c 132
 725 -36 725 -36 808 12 c 5
 849 41 849 41 862 74 c 132
 875 107 875 107 889 127 c 5
 893 254 893 254 855 350 c 132
 817 446 817 446 698 524 c 5
 583 581 l 5
EndSplineSet
EndChar

StartChar: u1159A
Encoding: 282 71066 26
Width: 1024
Flags: HW
LayerCount: 2
Fore
SplineSet
644 806 m 5
 670 803 670 803 727 779 c 132
 784 755 784 755 802 740 c 5
 807 696 l 5
 785 675 785 675 769 680 c 132
 753 685 753 685 727 687 c 5
 687 684 687 684 629 644 c 132
 571 604 571 604 556 568 c 5
 595 357 l 5
 610 257 610 257 600 156 c 132
 590 55 590 55 586 -44 c 5
 619 -77 619 -77 652.5 -97.5 c 132
 686 -118 686 -118 727 -136 c 4
 752 -147 752 -147 776.5 -149 c 132
 801 -151 801 -151 811 -180 c 5
 756 -210 756 -210 664.5 -186 c 132
 573 -162 573 -162 520 -128 c 5
 428 -48 l 5
 379 31 l 5
 355 48 355 48 323 61 c 132
 291 74 291 74 309 106 c 5
 359 133 359 133 397 121.5 c 132
 435 110 435 110 467 119 c 5
 481 198 l 6
 491 252 491 252 483.5 316.5 c 132
 476 381 476 381 459 436 c 5
 445 441 l 5
 427 412 427 412 370.5 344.5 c 132
 314 277 314 277 291 269 c 5
 234 295 l 5
 216 375 l 5
 357 573 l 5
 328 598 328 598 286.5 623 c 132
 245 648 245 648 234 687 c 5
 287 696 l 5
 310 717 310 717 318 744 c 132
 326 771 326 771 362 780 c 5
 428 775 l 5
 482 766 482 766 536 775 c 132
 590 784 590 784 644 806 c 5
EndSplineSet
EndChar

StartChar: u1159B
Encoding: 283 71067 27
Width: 1024
Flags: HW
LayerCount: 2
Fore
SplineSet
760 746 m 5
 817 731 817 731 886 703 c 132
 955 675 955 675 949 617 c 5
 907 580 907 580 842.5 576 c 132
 778 572 778 572 722 552 c 5
 649 513 649 513 591.5 447 c 132
 534 381 534 381 501 303 c 5
 744 346 l 5
 836 351 836 351 934.5 266.5 c 132
 1033 182 1033 182 1014 87 c 5
 982 27 l 5
 939 -18 939 -18 896 -36.5 c 132
 853 -55 853 -55 793 -43 c 5
 774 -16 774 -16 772 12 c 132
 770 40 770 40 771 76 c 5
 815 96 815 96 847.5 112 c 132
 880 128 880 128 863 190 c 5
 799 248 799 248 711.5 242 c 132
 624 236 624 236 555 190 c 5
 507 147 507 147 471.5 108.5 c 132
 436 70 436 70 452 0 c 5
 483 -27 483 -27 506 -53.5 c 132
 529 -80 529 -80 522 -119 c 5
 479 -143 479 -143 415 -114 c 132
 351 -85 351 -85 306 -59 c 5
 315 -36 315 -36 307.5 0.5 c 132
 300 37 300 37 279 49 c 5
 230 49 l 5
 84 98 l 6
 62 106 62 106 36.5 109 c 132
 11 112 11 112 20 146 c 5
 54 177 54 177 75 160 c 132
 96 143 96 143 133 146 c 5
 263 200 l 5
 306 239 306 239 358 324.5 c 132
 410 410 410 410 403 465 c 5
 274 595 l 5
 324 618 324 618 333 658.5 c 132
 342 699 342 699 387 719 c 5
 630 714 l 5
 760 746 l 5
EndSplineSet
EndChar

StartChar: u1159C
Encoding: 284 71068 28
Width: 1024
Flags: HW
LayerCount: 2
Fore
SplineSet
556 806 m 5
 613 805 613 805 645.5 781.5 c 132
 678 758 678 758 713 716 c 5
 813 586 813 586 801.5 443.5 c 132
 790 301 790 301 780 146 c 5
 780 89 780 89 801 26.5 c 132
 822 -36 822 -36 863 -71 c 5
 901 -95 901 -95 959.5 -120 c 132
 1018 -145 1018 -145 1009 -189 c 5
 975 -201 975 -201 939 -190 c 132
 903 -179 903 -179 869 -161 c 5
 752 -71 l 5
 696 -9 696 -9 663 118.5 c 132
 630 246 630 246 640 331 c 5
 654 401 654 401 645.5 547.5 c 132
 637 694 637 694 545 677 c 5
 482 606 482 606 468 503 c 132
 454 400 454 400 444 309 c 5
 439 141 l 5
 420 121 420 121 385.5 122.5 c 132
 351 124 351 124 327 130 c 5
 292 246 292 246 306.5 324 c 132
 321 402 321 402 310 498 c 5
 307 540 307 540 282.5 580 c 132
 258 620 258 620 215 605 c 5
 162 540 162 540 151 412 c 132
 140 284 140 284 165 208 c 5
 187 191 187 191 194.5 172.5 c 132
 202 154 202 154 193 130 c 5
 155 108 155 108 109 119.5 c 132
 63 131 63 131 20 135 c 5
 16 261 16 261 18.5 385.5 c 132
 21 510 21 510 87 633 c 5
 117 663 117 663 154 688.5 c 132
 191 714 191 714 232 716 c 5
 366 688 l 5
 400 739 l 5
 433 771 433 771 469.5 785.5 c 132
 506 800 506 800 556 806 c 5
EndSplineSet
EndChar

StartChar: u1159D
Encoding: 285 71069 29
Width: 1024
Flags: HW
LayerCount: 2
Fore
SplineSet
717 806 m 5
 751 802 751 802 800.5 765 c 132
 850 728 850 728 861 696 c 5
 832 672 l 5
 746 667 l 5
 711 661 711 661 644 630 c 132
 577 599 577 599 559 572 c 5
 598 428 l 5
 617 314 617 314 621 184 c 132
 625 54 625 54 607 -60 c 5
 602 -111 602 -111 580 -157.5 c 132
 558 -204 558 -204 502 -194 c 5
 478 -151 l 5
 466 -105 466 -105 477 -63.5 c 132
 488 -22 488 -22 497 21 c 5
 483 251 l 5
 485 297 485 297 482.5 356.5 c 132
 480 416 480 416 449 452 c 5
 301 251 l 5
 263 165 l 5
 220 179 l 5
 162 289 l 5
 354 557 l 5
 323 583 323 583 282.5 602 c 132
 242 621 242 621 224 663 c 5
 291 720 l 5
 306 763 l 5
 358 793 358 793 449.5 775.5 c 132
 541 758 541 758 607 763 c 5
 717 806 l 5
EndSplineSet
EndChar

StartChar: u1159E
Encoding: 286 71070 30
Width: 1024
Flags: HW
LayerCount: 2
Fore
SplineSet
765 806 m 5
 802 802 802 802 835.5 758.5 c 132
 869 715 869 715 878 679 c 5
 850 661 850 661 822.5 657.5 c 132
 795 654 795 654 770 623 c 5
 770 398 l 5
 765 257 l 5
 793 17 l 5
 835 -81 l 5
 863 -106 863 -106 900 -134.5 c 132
 937 -163 937 -163 953 -194 c 5
 923 -202 923 -202 899.5 -190 c 132
 876 -178 876 -178 845 -175 c 5
 723 -30 l 5
 700 39 700 39 662.5 145.5 c 132
 625 252 625 252 516 247 c 5
 404 215 l 5
 364 178 364 178 312 184.5 c 132
 260 191 260 191 216 215 c 5
 118 307 118 307 85.5 403 c 132
 53 499 53 499 127 628 c 5
 174 674 174 674 236.5 704 c 132
 299 734 299 734 366 736 c 5
 474 708 l 5
 514 667 514 667 528 616 c 132
 542 565 542 565 521 515 c 5
 465 462 465 462 407.5 469.5 c 132
 350 477 350 477 286 506 c 5
 272 529 l 5
 317 548 317 548 364 539 c 132
 411 530 411 530 427 600 c 5
 422 642 l 5
 387 662 387 662 352.5 655 c 132
 318 648 318 648 286 623 c 5
 214 554 214 554 195.5 483 c 132
 177 412 177 412 235 323 c 5
 313 277 313 277 372 307 c 132
 431 337 431 337 502 346 c 5
 554 344 554 344 590 322.5 c 132
 626 301 626 301 666 276 c 5
 684 318 684 318 668 440.5 c 132
 652 563 652 563 648 628 c 5
 654 694 654 694 699.5 726.5 c 132
 745 759 745 759 765 806 c 5
EndSplineSet
EndChar

StartChar: u1159F
Encoding: 287 71071 31
Width: 1024
Flags: HW
LayerCount: 2
Fore
SplineSet
752 808 m 5
 782 807 782 807 829 790 c 132
 876 773 876 773 886 748 c 5
 877 702 l 5
 848 682 848 682 772 684.5 c 132
 696 687 696 687 641 660 c 5
 584 619 584 619 498 534 c 132
 412 449 412 449 368 392 c 5
 558 281 l 5
 590 333 590 333 617 382 c 132
 644 431 644 431 697 471 c 5
 780 503 l 5
 826 526 l 5
 847 498 847 498 868.5 466.5 c 132
 890 435 890 435 882 401 c 5
 757 373 l 5
 659 286 659 286 645.5 166.5 c 132
 632 47 632 47 678 -66 c 5
 812 -182 l 5
 782 -202 782 -202 753.5 -191 c 132
 725 -180 725 -180 697 -164 c 5
 653 -122 653 -122 610 -71 c 132
 567 -20 567 -20 553 40 c 5
 548 75 548 75 543.5 128 c 132
 539 181 539 181 516 207 c 5
 478 240 478 240 426.5 276 c 132
 375 312 375 312 322 322 c 5
 197 322 l 5
 137 420 l 5
 262 457 l 5
 400 572 l 5
 368 601 368 601 333 627 c 132
 298 653 298 653 285 697 c 5
 387 790 l 5
 412 798 412 798 462 787 c 132
 512 776 512 776 539 771 c 5
 595 764 595 764 645.5 782 c 132
 696 800 696 800 752 808 c 5
EndSplineSet
EndChar

StartChar: u115A0
Encoding: 288 71072 32
Width: 1024
Flags: HW
LayerCount: 2
Fore
SplineSet
726 808 m 5
 842 701 l 5
 766 630 l 5
 745 581 745 581 744 519 c 132
 743 457 743 457 744 402 c 5
 741 280 741 280 741 153 c 132
 741 26 741 26 784 -89 c 5
 808 -110 808 -110 841.5 -136 c 132
 875 -162 875 -162 878 -191 c 5
 843 -202 843 -202 820.5 -184 c 132
 798 -166 798 -166 766 -156 c 5
 717 -107 l 5
 645 14 l 5
 565 5 l 5
 418 14 l 5
 314 36 314 36 227 135 c 132
 140 234 140 234 150 344 c 5
 217 509 l 5
 279 571 279 571 364.5 617.5 c 132
 450 664 450 664 538 679 c 5
 596 706 l 5
 636 683 l 5
 726 808 l 5
628 558 m 5
 532 552 532 552 447 511.5 c 132
 362 471 362 471 297 407 c 5
 264 332 264 332 290 267 c 132
 316 202 316 202 369 152 c 5
 421 126 421 126 505 109.5 c 132
 589 93 589 93 641 121 c 5
 628 558 l 5
EndSplineSet
EndChar

StartChar: u115A1
Encoding: 289 71073 33
Width: 1024
Flags: HW
LayerCount: 2
Fore
SplineSet
776 806 m 5
 900 761 l 5
 904 715 l 5
 767 683 l 5
 739 675 739 675 671.5 637 c 132
 604 599 604 599 589 578 c 5
 671 386 l 5
 683 265 683 265 659.5 140.5 c 132
 636 16 636 16 685 -98 c 5
 709 -119 709 -119 741.5 -143 c 132
 774 -167 774 -167 776 -194 c 5
 745 -203 745 -203 711.5 -185.5 c 132
 678 -168 678 -168 653 -148 c 5
 569 -59 569 -59 558.5 45 c 132
 548 149 548 149 553 263 c 4
 554 299 554 299 545.5 363.5 c 132
 537 428 537 428 507 445 c 5
 445 338 445 338 365 254.5 c 132
 285 171 285 171 151 249 c 5
 121 293 121 293 124.5 335.5 c 132
 128 378 128 378 155 423 c 5
 196 437 196 437 232 445.5 c 132
 268 454 268 454 311 445 c 5
 329 404 l 5
 299 382 299 382 265.5 376 c 132
 232 370 232 370 228 318 c 5
 241 304 241 304 250.5 304.5 c 132
 260 305 260 305 279 313 c 5
 332 364 332 364 374 428 c 132
 416 492 416 492 434 564 c 5
 405 587 405 587 355 609 c 132
 305 631 305 631 292 656 c 5
 371 688 371 688 369 726.5 c 132
 367 765 367 765 420 788 c 5
 543 779 l 5
 599 769 599 769 658 779 c 132
 717 789 717 789 776 806 c 5
EndSplineSet
EndChar

StartChar: u115A2
Encoding: 290 71074 34
Width: 1024
Flags: HW
LayerCount: 2
Fore
SplineSet
771 808 m 5
 814 793 814 793 849.5 757.5 c 132
 885 722 885 722 886 679 c 5
 805 631 l 5
 785 585 785 585 784 524 c 132
 783 463 783 463 790 414 c 5
 814 68 l 5
 877 -91 l 5
 904 -112 904 -112 945 -136 c 132
 986 -160 986 -160 983 -191 c 5
 962 -198 962 -198 942.5 -192 c 132
 923 -186 923 -186 901 -177 c 5
 843 -139 l 6
 804 -113 804 -113 774.5 -69 c 132
 745 -25 745 -25 723 20 c 5
 693 93 693 93 678.5 165 c 132
 664 237 664 237 593 289 c 5
 536 319 536 319 473 279 c 132
 410 239 410 239 348 241 c 5
 302 252 302 252 256 304.5 c 132
 210 357 210 357 199 405 c 5
 194 462 l 5
 171 487 171 487 116.5 505.5 c 132
 62 524 62 524 45 583 c 5
 112 659 l 5
 286 679 l 5
 329 698 l 5
 473 655 l 5
 478 602 l 5
 451 576 451 576 429.5 582 c 132
 408 588 408 588 377 578 c 5
 324 546 324 546 316 489.5 c 132
 308 433 308 433 334 381 c 5
 368 360 368 360 411.5 365.5 c 132
 455 371 455 371 492 381 c 5
 537 387 537 387 583 375 c 132
 629 363 629 363 665 337 c 5
 670 453 l 5
 665 552 665 552 673.5 646 c 132
 682 740 682 740 771 808 c 5
EndSplineSet
EndChar

StartChar: u115A3
Encoding: 291 71075 35
Width: 1024
Flags: HW
LayerCount: 2
Fore
SplineSet
718 806 m 5
 773 804 773 804 835 766 c 132
 897 728 897 728 877 668 c 5
 781 647 l 5
 543 515 l 5
 321 340 l 5
 284 315 284 315 231 249 c 132
 178 183 178 183 183 139 c 5
 217 106 217 106 263.5 85.5 c 132
 310 65 310 65 358 65 c 5
 398 190 398 190 484.5 275 c 132
 571 360 571 360 702 383 c 5
 850 346 l 5
 960 247 960 247 981.5 207 c 132
 1003 167 1003 167 961 23 c 5
 921 -23 921 -23 884.5 -49.5 c 132
 848 -76 848 -76 787 -62 c 5
 773 -26 773 -26 754.5 -5.5 c 132
 736 15 736 15 734 60 c 5
 776 84 776 84 837.5 99 c 132
 899 114 899 114 861 203 c 5
 812 246 812 246 751.5 239 c 132
 691 232 691 232 633 213 c 5
 580 159 580 159 556.5 106.5 c 132
 533 54 533 54 522 -20 c 5
 523 -55 523 -55 539.5 -109 c 132
 556 -163 556 -163 533 -194 c 5
 469 -184 l 5
 385 -104 l 5
 353 -99 l 5
 345 -90 345 -90 341 -63 c 132
 337 -36 337 -36 300 -14 c 5
 189 23 l 5
 102 65 102 65 61.5 151 c 132
 21 237 21 237 72 324 c 5
 284 515 l 5
 251 532 251 532 216.5 547.5 c 132
 182 563 182 563 168 605 c 5
 247 633 247 633 259 671 c 132
 271 709 271 709 321 742 c 5
 357 759 357 759 393 752.5 c 132
 429 746 429 746 464 748 c 5
 528 758 528 758 590.5 767.5 c 132
 653 777 653 777 718 806 c 5
EndSplineSet
EndChar

StartChar: u115A4
Encoding: 292 71076 36
Width: 1024
Flags: HW
LayerCount: 2
Fore
SplineSet
764 808 m 5
 803 806 803 806 853 777.5 c 132
 903 749 903 749 901 711 c 5
 848 667 848 667 775 654 c 132
 702 641 702 641 649 587 c 5
 616 542 616 542 620 484 c 132
 624 426 624 426 627 375 c 5
 623 280 623 280 619 159.5 c 132
 615 39 615 39 658 -45 c 5
 746 -125 l 5
 778 -139 778 -139 811.5 -141 c 132
 845 -143 845 -143 865 -169 c 5
 814 -213 814 -213 747.5 -184.5 c 132
 681 -156 681 -156 631 -130 c 5
 547 -41 l 5
 507 39 l 5
 454 12 l 5
 321 3 l 5
 210 30 210 30 158.5 141.5 c 132
 107 253 107 253 144 357 c 5
 191 383 191 383 280 439.5 c 132
 369 496 369 496 379 543 c 5
 351 566 351 566 307.5 593 c 132
 264 620 264 620 259 654 c 5
 317 659 317 659 329.5 705 c 132
 342 751 342 751 379 764 c 5
 591 760 l 5
 764 808 l 5
503 468 m 5
 465 418 465 418 420.5 375.5 c 132
 376 333 376 333 326 309 c 5
 246 264 l 5
 233 221 233 221 243 186 c 132
 253 151 253 151 286 118 c 5
 358 77 358 77 410 113.5 c 132
 462 150 462 150 507 202 c 5
 503 468 l 5
EndSplineSet
EndChar

StartChar: u115A5
Encoding: 293 71077 37
Width: 1024
Flags: HW
LayerCount: 2
Fore
SplineSet
678 808 m 5
 728 796 728 796 780 770 c 132
 832 744 832 744 827 691 c 5
 801 682 801 682 780 683.5 c 132
 759 685 759 685 732 687 c 5
 662 683 662 683 595 626 c 132
 528 569 528 569 507 502 c 5
 656 466 l 5
 784 370 784 370 769.5 251.5 c 132
 755 133 755 133 764 -2 c 5
 783 -57 783 -57 844 -103 c 132
 905 -149 905 -149 903 -182 c 5
 883 -202 883 -202 856.5 -193.5 c 132
 830 -185 830 -185 809 -169 c 6
 741 -115 l 5
 702 -73 702 -73 681.5 -14 c 132
 661 45 661 45 651 101 c 5
 638 331 l 5
 619 370 619 370 577.5 391 c 132
 536 412 536 412 493 394 c 5
 449 350 449 350 433 301.5 c 132
 417 253 417 253 439 196 c 5
 456 179 456 179 459.5 167.5 c 132
 463 156 463 156 462 137 c 5
 412 137 l 5
 322 209 l 5
 321 222 321 222 318 250.5 c 132
 315 279 315 279 295 286 c 5
 244 291 244 291 198.5 299 c 132
 153 307 153 307 124 367 c 5
 165 367 l 5
 190 345 190 345 222 352 c 132
 254 359 254 359 282 372 c 5
 315 413 315 413 349.5 452 c 132
 384 491 384 491 399 547 c 5
 369 573 369 573 329.5 603 c 132
 290 633 290 633 286 673 c 5
 327 677 327 677 338.5 712.5 c 132
 350 748 350 748 376 763 c 5
 512 768 l 5
 555 774 555 774 593 782 c 132
 631 790 631 790 678 808 c 5
EndSplineSet
EndChar

StartChar: u115A6
Encoding: 294 71078 38
Width: 1024
Flags: HW
LayerCount: 2
Fore
SplineSet
799 806 m 5
 836 782 836 782 864.5 754.5 c 132
 893 727 893 727 894 682 c 5
 823 634 l 5
 800 595 800 595 805.5 541.5 c 132
 811 488 811 488 813 447 c 5
 809 332 809 332 806.5 163.5 c 132
 804 -5 804 -5 856 -98 c 5
 886 -125 886 -125 917.5 -142 c 132
 949 -159 949 -159 971 -189 c 5
 936 -208 936 -208 888 -186 c 132
 840 -164 840 -164 808 -146 c 5
 778 -118 778 -118 750 -84.5 c 132
 722 -51 722 -51 712 -7 c 5
 693 93 l 5
 644 157 644 157 546.5 160.5 c 132
 449 164 449 164 378 151 c 5
 267 103 l 5
 243 74 243 74 211.5 48 c 132
 180 22 180 22 143 31 c 5
 119 52 119 52 87.5 79.5 c 132
 56 107 56 107 52 136 c 5
 138 194 l 5
 226 262 226 262 259.5 331 c 132
 293 400 293 400 258 505 c 5
 215 548 l 5
 129 586 l 5
 172 710 l 5
 228 741 228 741 273 727.5 c 132
 318 714 318 714 373 720 c 5
 445 734 l 5
 521 701 l 5
 531 653 l 5
 483 631 483 631 406 612.5 c 132
 329 594 329 594 320 533 c 5
 368 447 l 5
 386 409 386 409 385.5 360.5 c 132
 385 312 385 312 373 275 c 5
 488 265 l 5
 544 254 544 254 592.5 238.5 c 132
 641 223 641 223 693 198 c 5
 703 299 l 5
 703 672 l 5
 709 705 709 705 736.5 750.5 c 132
 764 796 764 796 799 806 c 5
EndSplineSet
EndChar

StartChar: u115A7
Encoding: 295 71079 39
Width: 1024
Flags: HW
LayerCount: 2
Fore
SplineSet
482 808 m 5
 532 796 532 796 570 777 c 132
 608 758 608 758 610 706 c 5
 579 681 579 681 533.5 679 c 132
 488 677 488 677 453 632 c 5
 441 597 441 597 459.5 525 c 132
 478 453 478 453 448 411 c 5
 374 402 l 5
 311 397 311 397 227.5 368.5 c 132
 144 340 144 340 183 255 c 5
 269 170 269 170 319.5 188.5 c 132
 370 207 370 207 462 230 c 5
 522 240 522 240 577.5 232.5 c 132
 633 225 633 225 688 210 c 5
 724 277 724 277 706.5 401 c 132
 689 525 689 525 683 608 c 5
 685 646 685 646 718 703 c 132
 751 760 751 760 796 759 c 5
 840 735 l 5
 849 711 849 711 863.5 697 c 132
 878 683 878 683 879 657 c 5
 791 622 l 5
 791 490 l 5
 785 438 785 438 789 386.5 c 132
 793 335 793 335 801 284 c 5
 817 163 817 163 821 74 c 132
 825 -15 825 -15 899 -128 c 5
 918 -145 918 -145 937 -155 c 132
 956 -165 956 -165 967 -191 c 5
 860 -167 l 5
 766 -74 l 5
 717 29 l 5
 678 100 678 100 601.5 130.5 c 132
 525 161 525 161 448 127 c 5
 400 65 400 65 320.5 82.5 c 132
 241 100 241 100 178 142 c 5
 112 202 112 202 76 261 c 132
 40 320 40 320 80 407 c 5
 193 480 l 5
 245 496 245 496 312.5 514 c 132
 380 532 380 532 325 622 c 5
 252 687 252 687 247.5 691 c 132
 243 695 243 695 271 779 c 5
 404 784 l 5
 482 808 l 5
EndSplineSet
EndChar

StartChar: u115A8
Encoding: 296 71080 40
Width: 1024
Flags: HW
LayerCount: 2
Fore
SplineSet
635 806 m 5
 674 794 674 794 718.5 759 c 132
 763 724 763 724 754 678 c 5
 671 674 l 5
 548 619 l 5
 501 581 501 581 504.5 516 c 132
 508 451 508 451 512 400 c 5
 507 208 l 5
 518 148 518 148 518.5 82.5 c 132
 519 17 519 17 502 -39 c 5
 548 -83 548 -83 604 -108.5 c 132
 660 -134 660 -134 722 -144 c 5
 790 -144 l 5
 808 -180 l 5
 717 -209 717 -209 637 -187 c 132
 557 -165 557 -165 475 -121 c 5
 426 -72 426 -72 392 -32 c 132
 358 8 358 8 315 62 c 5
 233 126 l 5
 264 136 264 136 295 138.5 c 132
 326 141 326 141 356 135 c 6
 397 126 l 5
 406 235 l 5
 397 331 l 5
 399 385 399 385 402.5 436 c 132
 406 487 406 487 393 541 c 5
 219 669 l 5
 274 687 l 5
 295 703 295 703 297.5 731.5 c 132
 300 760 300 760 333 770 c 5
 421 778 421 778 477.5 771.5 c 132
 534 765 534 765 635 806 c 5
EndSplineSet
EndChar

StartChar: u115A9
Encoding: 297 71081 41
Width: 1024
Flags: HW
LayerCount: 2
Fore
SplineSet
459 801 m 5
 517 800 517 800 575 793.5 c 132
 633 787 633 787 693 787 c 5
 712 808 712 808 757 790 c 132
 802 772 802 772 827 758 c 5
 842 745 842 745 844 735 c 132
 846 725 846 725 842 706 c 5
 789 678 789 678 728 666 c 132
 667 654 667 654 631 596 c 5
 622 222 l 5
 624 150 624 150 600 114 c 132
 576 78 576 78 502 122 c 5
 416 218 l 5
 390 230 390 230 351.5 230.5 c 132
 313 231 313 231 272 280 c 5
 311 292 311 292 323.5 308.5 c 132
 336 325 336 325 334 371 c 5
 307 397 307 397 279.5 392.5 c 132
 252 388 252 388 220 375 c 5
 151 314 151 314 125.5 276 c 132
 100 238 100 238 124 141 c 5
 189 83 189 83 280.5 69.5 c 132
 372 56 372 56 454 45 c 5
 564 27 564 27 690 -14 c 132
 816 -55 816 -55 899 -122 c 5
 930 -141 930 -141 962.5 -148 c 132
 995 -155 995 -155 1014 -184 c 5
 784 -108 l 6
 684 -76 684 -76 583.5 -53 c 132
 483 -30 483 -30 382 -12 c 5
 314 -4 314 -4 243 4.5 c 132
 172 13 172 13 110 50 c 5
 19 140 19 140 17 217.5 c 132
 15 295 15 295 81 399 c 5
 132 451 132 451 193 482 c 132
 254 513 254 513 325 505 c 5
 411 462 l 5
 458 393 458 393 435 311 c 132
 412 229 412 229 497 222 c 5
 520 269 520 269 512.5 387 c 132
 505 505 505 505 502 567 c 5
 464 596 464 596 402.5 618.5 c 132
 341 641 341 641 334 696 c 5
 392 696 l 5
 401 725 l 5
 406 748 406 748 421 763.5 c 132
 436 779 436 779 459 801 c 5
EndSplineSet
EndChar

StartChar: u115AA
Encoding: 298 71082 42
Width: 1024
Flags: HW
LayerCount: 2
Fore
SplineSet
752 808 m 5
 787 789 787 789 834 756 c 132
 881 723 881 723 872 683 c 5
 827 660 827 660 764.5 664 c 132
 702 668 702 668 656 631 c 5
 633 603 633 603 635.5 560 c 132
 638 517 638 517 636 486 c 5
 632 39 l 5
 670 -62 l 5
 723 -115 l 5
 757 -131 757 -131 793.5 -141.5 c 132
 830 -152 830 -152 853 -182 c 5
 806 -207 806 -207 758 -182.5 c 132
 710 -158 710 -158 665 -139 c 5
 574 -47 l 5
 531 20 l 5
 444 10 l 5
 329 39 l 5
 246 81 246 81 192 165.5 c 132
 138 250 138 250 165 347 c 5
 209 424 l 5
 387 583 l 5
 353 610 353 610 311.5 643.5 c 132
 270 677 270 677 276 727 c 5
 289 712 289 712 292 711 c 132
 295 710 295 710 314 722 c 5
 329 744 329 744 346.5 762 c 132
 364 780 364 780 391 784 c 5
 492 770 l 5
 555 759 555 759 622 770 c 132
 689 781 689 781 752 808 c 5
348 390 m 5
 281 318 l 5
 252 241 252 241 266.5 213.5 c 132
 281 186 281 186 338 135 c 5
 383 117 383 117 432.5 103.5 c 132
 482 90 482 90 526 116 c 5
 531 419 l 5
 536 442 536 442 535 470.5 c 132
 534 499 534 499 516 515 c 5
 348 390 l 5
EndSplineSet
EndChar

StartChar: u115AB
Encoding: 299 71083 43
Width: 1024
Flags: HW
LayerCount: 2
Fore
SplineSet
437 808 m 5
 536 808 536 808 601 758.5 c 132
 666 709 666 709 684 608 c 5
 656 509 l 5
 722 528 l 5
 774 584 774 584 791.5 580.5 c 132
 809 577 809 577 885 556 c 5
 906 536 906 536 906 524.5 c 132
 906 513 906 513 895 491 c 5
 754 402 l 5
 745 290 l 5
 754 108 l 5
 820 -65 l 5
 876 -135 l 5
 932 -173 l 5
 932 -191 l 5
 829 -159 l 5
 772 -103 772 -103 722.5 -33.5 c 132
 673 36 673 36 656 117 c 5
 638 383 l 5
 625 390 625 390 591 369 c 132
 557 348 557 348 540 341 c 5
 523 324 523 324 509 323 c 132
 495 322 495 322 474 327 c 5
 452 346 452 346 436 356.5 c 132
 420 367 420 367 432 397 c 5
 511 451 511 451 539 533.5 c 132
 567 616 567 616 526 706 c 5
 494 736 494 736 457 734.5 c 132
 420 733 420 733 381 715 c 5
 350 684 350 684 335 652 c 132
 320 620 320 620 320 580 c 5
 378 516 378 516 349 481.5 c 132
 320 447 320 447 311 402 c 5
 348 304 l 5
 354 261 354 261 337.5 215.5 c 132
 321 170 321 170 301 131 c 5
 282 110 282 110 266 110 c 132
 250 110 250 110 226 122 c 5
 213 134 213 134 211 143.5 c 132
 209 153 209 153 212 173 c 5
 247 198 247 198 256.5 240 c 132
 266 282 266 282 264 323 c 5
 238 323 238 323 171 309.5 c 132
 104 296 104 296 96 346 c 5
 131 373 131 373 180 389 c 132
 229 405 229 405 250 458 c 5
 222 556 l 5
 213 648 213 648 278.5 723.5 c 132
 344 799 344 799 437 808 c 5
EndSplineSet
EndChar

StartChar: u115AC
Encoding: 300 71084 44
Width: 1024
Flags: HW
LayerCount: 2
Fore
SplineSet
772 808 m 5
 812 794 812 794 858 749 c 132
 904 704 904 704 907 663 c 5
 876 653 876 653 847 648.5 c 132
 818 644 818 644 798 616 c 5
 793 444 l 5
 792 325 792 325 799 181.5 c 132
 806 38 806 38 840 -72 c 5
 980 -186 l 5
 948 -204 948 -204 905.5 -190.5 c 132
 863 -177 863 -177 829 -155 c 5
 783 -110 783 -110 751 -64.5 c 132
 719 -19 719 -19 699 43 c 5
 673 168 l 5
 579 137 l 6
 540 125 540 125 494 132 c 132
 448 139 448 139 407 152 c 5
 338 176 338 176 274 233 c 132
 210 290 210 290 194 366 c 5
 178 491 l 5
 159 518 159 518 113 533.5 c 132
 67 549 67 549 43 590 c 5
 80 608 80 608 74 645.5 c 132
 68 683 68 683 100 699 c 5
 256 704 l 5
 366 746 l 5
 527 694 l 5
 538 637 l 5
 510 611 510 611 472 603.5 c 132
 434 596 434 596 397 579 c 5
 309 527 309 527 318 437.5 c 132
 327 348 327 348 371 277 c 5
 424 241 424 241 467.5 229.5 c 132
 511 218 511 218 574 241 c 5
 574 272 l 5
 542 309 542 309 515 368 c 132
 488 427 488 427 439 480 c 5
 470 490 470 490 501.5 476 c 132
 533 462 533 462 564 449 c 5
 668 361 l 5
 663 579 l 5
 675 641 675 641 701.5 696.5 c 132
 728 752 728 752 772 808 c 5
EndSplineSet
EndChar

StartChar: u115AD
Encoding: 301 71085 45
Width: 1024
Flags: HW
LayerCount: 2
Fore
SplineSet
760 802 m 5
 805 800 805 800 837.5 767 c 132
 870 734 870 734 855 689 c 5
 801 657 l 5
 764 605 764 605 771.5 525.5 c 132
 779 446 779 446 792 385 c 5
 809 267 809 267 824.5 158 c 132
 840 49 840 49 901 -58 c 5
 929 -83 929 -83 969.5 -118.5 c 132
 1010 -154 1010 -154 1014 -185 c 5
 990 -191 990 -191 965 -177.5 c 132
 940 -164 940 -164 919 -149 c 5
 760 28 l 5
 706 191 l 5
 653 272 653 272 564 324 c 132
 475 376 475 376 380 322 c 5
 344 286 344 286 334.5 253.5 c 132
 325 221 325 221 335 173 c 5
 343 147 343 147 357 114.5 c 132
 371 82 371 82 344 64 c 5
 258 100 l 5
 217 223 l 5
 181 232 181 232 102.5 226 c 132
 24 220 24 220 14 281 c 5
 55 305 55 305 100.5 307.5 c 132
 146 310 146 310 190 331 c 5
 240 359 240 359 271.5 426 c 132
 303 493 303 493 294 548 c 5
 263 576 263 576 231.5 597 c 132
 200 618 200 618 181 657 c 5
 258 738 l 5
 462 761 l 5
 539 734 l 5
 561 715 561 715 579 700 c 132
 597 685 597 685 597 657 c 5
 448 603 l 5
 401 567 401 567 393.5 515.5 c 132
 386 464 386 464 376 413 c 5
 398 401 398 401 434 411.5 c 132
 470 422 470 422 498 422 c 5
 548 411 548 411 590.5 392 c 132
 633 373 633 373 679 349 c 5
 702 439 702 439 683.5 540.5 c 132
 665 642 665 642 697 729 c 5
 760 802 l 5
EndSplineSet
EndChar

StartChar: u115AE
Encoding: 302 71086 46
Width: 1024
Flags: HW
LayerCount: 2
Fore
SplineSet
636 806 m 5
 683 805 683 805 751 776.5 c 132
 819 748 819 748 791 695 c 5
 645 664 l 5
 556 617 556 617 478.5 564.5 c 132
 401 512 401 512 325 446 c 5
 283 415 283 415 233.5 370 c 132
 184 325 184 325 192 269 c 5
 220 241 220 241 257.5 222 c 132
 295 203 295 203 329 193 c 5
 352 286 l 5
 367 332 367 332 411 385.5 c 132
 455 439 455 439 503 460 c 5
 627 437 l 5
 674 395 674 395 724 348.5 c 132
 774 302 774 302 787 237 c 5
 794 169 794 169 776 113.5 c 132
 758 58 758 58 791 -16 c 5
 876 -123 l 5
 903 -141 903 -141 925 -152 c 132
 947 -163 947 -163 960 -194 c 5
 831 -145 l 5
 774 -89 774 -89 730.5 -21 c 132
 687 47 687 47 671 131 c 5
 654 277 l 5
 646 300 646 300 622 333.5 c 132
 598 367 598 367 569 371 c 5
 529 353 l 5
 483 305 483 305 461.5 242.5 c 132
 440 180 440 180 449 113 c 5
 467 6 l 5
 453 -16 453 -16 434 -11 c 132
 415 -6 415 -6 400 6 c 5
 325 77 l 5
 321 93 321 93 323 103.5 c 132
 325 114 325 114 307 131 c 5
 226 179 226 179 129.5 221.5 c 132
 33 264 33 264 98 393 c 5
 276 580 l 5
 249 604 249 604 221 618 c 132
 193 632 193 632 178 664 c 5
 225 682 225 682 239 715 c 132
 253 748 253 748 285 771 c 5
 405 757 l 5
 456 750 456 750 525 759.5 c 132
 594 769 594 769 636 806 c 5
EndSplineSet
EndChar

StartChar: u115AF
Encoding: 303 71087 47
Width: 1024
Flags: HW
LayerCount: 2
Fore
SplineSet
714.875 679.25 m 1
 748.875 676.583 748.333 740 795 812 c 1
 832.333 816 862.833 812 886.5 800 c 128
 910.174 788 922.34 762.333 923 723 c 1
 875 684.333 846.667 640.667 838 592 c 128
 829.333 543.333 843.333 487.667 880 425 c 1
 914.667 396.333 951 360.333 989 317 c 128
 1027 273.667 1024.67 253.829 990 274 c 2
 834.875 364.25 l 1
 833.875 407.583 769.667 436.5 749 483.5 c 128
 728.333 530.5 735.542 608.25 726.875 682.25 c 1
EndSplineSet
EndChar

StartChar: u115B0
Encoding: 304 71088 48
Width: 1024
Flags: HW
LayerCount: 2
Fore
SplineSet
430.5 733 m 1
 401.5 779.667 348 795.333 270 780 c 1
 145.333 750.667 71.8333 649.5 49.5 476.5 c 128
 27.1667 303.5 53 158 127 40 c 128
 201 -78 294.667 -145.667 408 -163 c 1
 233.333 -70.3333 139.167 82.3333 125.5 295 c 128
 111.833 507.667 148.667 638.667 236 688 c 0
 273.333 709.331 306 715.164 334 705.5 c 128
 362 695.833 377 665.333 379 614 c 1
 430.5 733 l 1
EndSplineSet
EndChar

StartChar: u115B1
Encoding: 305 71089 49
Width: 1024
Flags: HWO
LayerCount: 2
Fore
SplineSet
442 569 m 1
 436.667 649.667 464 706.667 524 740 c 128
 584 773.333 645.667 767.167 709 721.5 c 128
 772.333 675.833 811.333 537.167 826 305.5 c 128
 840.667 73.8333 899.334 -53.3333 1002 -76 c 1
 847.333 -57.3333 761.333 67.6667 744 299 c 128
 726.667 530.333 687.167 649.167 625.5 655.5 c 128
 563.833 661.833 535 633.667 539 571 c 1
 442 569 l 1
EndSplineSet
EndChar

StartChar: u115B2
Encoding: 306 71090 50
Width: 1024
Flags: HW
LayerCount: 2
Fore
SplineSet
576 168 m 1
 572 90 l 1
 638.668 74.6667 682.335 53.8333 703 27.5 c 128
 723.672 1.16667 730.839 -33.3333 724.5 -76 c 128
 718.167 -118.667 690.667 -149.833 642 -169.5 c 128
 593.333 -189.167 540.333 -191.5 483 -176.5 c 128
 425.667 -161.5 380.167 -139.167 346.5 -109.5 c 128
 312.833 -79.8333 259 -48.6667 185 -16 c 1
 241 -4 298.5 -16.5 357.5 -53.5 c 128
 416.5 -90.5 468.5 -109.833 513.5 -111.5 c 128
 558.5 -113.167 592.167 -105.333 614.5 -88 c 128
 636.833 -70.6667 644.667 -52.5 638 -33.5 c 128
 631.333 -14.5 616.667 1.16667 594 13.5 c 128
 571.333 25.8333 546.833 28.8333 520.5 22.5 c 128
 494.167 16.1667 469.667 0.5 447 -24.5 c 128
 424.333 -49.5 404.333 -36.3333 387 15 c 1
 419 50.3333 451.667 76.3333 485 93 c 1
 481 170 l 1
 576 168 l 1
192 801 m 1
 870 801 l 1
 872 157 l 1
 192 157 l 1
 192 801 l 1
226 769 m 1
 225 189 l 1
 835 189 l 1
 835 769 l 1
 226 769 l 1
EndSplineSet
EndChar

StartChar: u115B3
Encoding: 307 71091 51
Width: 1024
Flags: HW
LayerCount: 2
Fore
SplineSet
576 168 m 1
 572 106 l 1
 633.333 90.6667 675.667 67.1667 699 35.5 c 128
 722.333 3.83333 730.833 -33.3333 724.5 -76 c 128
 718.167 -118.667 690.667 -149.833 642 -169.5 c 128
 593.333 -189.167 540.333 -190.833 483 -174.5 c 128
 425.667 -158.167 380.167 -133.833 346.5 -101.5 c 128
 312.833 -69.1667 259 -40.6667 185 -16 c 1
 241 -4 300.5 -17.8333 363.5 -57.5 c 128
 426.5 -97.1667 478.5 -116.5 519.5 -115.5 c 128
 560.5 -114.5 592.167 -104.667 614.5 -86 c 128
 636.833 -67.3333 646 -47.3333 642 -26 c 128
 638 -4.66667 624.667 11.6667 602 23 c 128
 579.333 34.3333 553.5 36.8333 524.5 30.5 c 128
 495.5 24.1667 469.667 7.16667 447 -20.5 c 128
 424.333 -48.1667 404.333 -36.3333 387 15 c 1
 409 58.3333 441.667 87 485 101 c 1
 481 170 l 1
 576 168 l 1
192 801 m 1
 870 801 l 1
 872 157 l 1
 192 157 l 1
 192 801 l 1
226 769 m 1
 225 189 l 1
 835 189 l 1
 835 769 l 1
 226 769 l 1
713 -36 m 1
 738.333 -35.3333 773.333 -42 818 -56 c 1
 842.667 -72 856.167 -92.1667 858.5 -116.5 c 128
 860.833 -140.833 854 -161.333 838 -178 c 1
 805 -158 l 1
 783 -138 752.667 -105.333 714 -60 c 1
 713 -36 l 1
EndSplineSet
EndChar

StartChar: u115B4
Encoding: 308 71092 52
Width: 1024
Flags: HW
LayerCount: 2
Fore
SplineSet
584 146 m 1
 581.333 110.667 581.833 83 585.5 63 c 128
 589.149 43 588.815 25.5 584.5 10.5 c 128
 580.167 -4.5 568 -14.1667 548 -18.5 c 128
 528 -22.8333 496.333 -22.6667 453 -18 c 128
 409.667 -13.3333 385.833 -20.6667 381.5 -40 c 128
 377.167 -59.3333 385.5 -72.8333 406.5 -80.5 c 128
 427.5 -88.1665 468.667 -92.3332 530 -93 c 128
 591.333 -93.6667 623.5 -103.5 626.5 -122.5 c 128
 629.5 -141.5 617 -155.167 589 -163.5 c 128
 561 -171.833 515.5 -172.333 452.5 -165 c 128
 389.5 -157.667 345.167 -144.333 319.5 -125 c 128
 293.833 -105.667 282 -73 284 -27 c 1
 294.667 19 321.333 44.8333 364 50.5 c 128
 406.667 56.1668 439.667 58.3334 463 57 c 128
 486.333 55.6667 497.5 62.5 496.5 77.5 c 128
 495.5 92.5 495.667 115.333 497 146 c 1
 584 146 l 1
194 779 m 1
 870 779 l 1
 870 137 l 1
 194 136 l 1
 194 779 l 1
228 747 m 1
 228 168 l 1
 835 168 l 1
 835 747 l 1
 228 747 l 1
EndSplineSet
EndChar

StartChar: u115B8
Encoding: 312 71096 53
Width: 0
VWidth: 2048
Flags: HW
LayerCount: 2
Fore
SplineSet
170 1420 m 1
 94.6667 1420 35.8333 1402 -6.5 1366 c 128
 -48.8333 1330 -70 1274.33 -70 1199 c 0
 -70 1171.67 -68.6667 1152 -66 1140 c 1
 -166 1140 l 1
 -168.667 1156 -170 1169.33 -170 1180 c 0
 -170 1406.67 -56.6667 1520 170 1520 c 1
 170 1420 l 1
EndSplineSet
EndChar

StartChar: u115B9
Encoding: 313 71097 54
Width: 1024
Flags: HW
LayerCount: 2
Fore
SplineSet
468 516 m 1
 456.667 554.667 443 578.167 427 586.5 c 128
 411 594.833 386.833 607.833 354.5 625.5 c 128
 322.167 643.169 302.167 663.336 294.5 686 c 128
 286.833 708.667 288 729.167 298 747.5 c 128
 308 765.833 324 781.333 346 794 c 128
 368 806.673 407 814.34 463 817 c 128
 519 819.667 568 809.667 610 787 c 128
 652 764.333 670 738 664 708 c 128
 658 678 636.333 659.167 599 651.5 c 128
 561.666 643.833 528.332 646.167 499 658.5 c 128
 469.667 670.833 460.833 680.333 472.5 687 c 128
 484.167 693.688 504.833 695.855 534.5 693.5 c 128
 564.169 691.177 582.836 695.344 590.5 706 c 128
 598.167 716.672 595.667 727.339 583 738 c 128
 570.333 748.667 548.5 756 517.5 760 c 128
 486.5 764 457.667 763.667 431 759 c 128
 404.333 754.333 386.333 746.667 377 736 c 128
 367.667 725.333 365.167 709.333 369.5 688 c 128
 373.833 666.667 400.333 648.667 449 634 c 128
 497.667 619.333 535.667 580 563 516 c 1
 468 516 l 1
318 518 m 1
 286 556 253.833 577.5 221.5 582.5 c 128
 189.167 587.5 159.333 572.333 132 537 c 1
 128.667 504.333 115.5 487.666 92.5 487 c 128
 69.5 486.333 41 499 7 525 c 1
 20.3333 573 43.8333 606.833 77.5 626.5 c 128
 111.167 646.172 142.833 654.338 172.5 651 c 128
 202.167 647.667 233.5 636 266.5 616 c 128
 299.5 596 337 563.333 379 518 c 1
 318 518 l 1
297 526 m 1
 990 526 l 1
 990 -197 l 1
 297 -197 l 1
 297 526 l 1
332 488 m 1
 332 -160 l 1
 955 -160 l 1
 955 488 l 1
 332 488 l 1
EndSplineSet
EndChar

StartChar: u115BA
Encoding: 314 71098 55
Width: 1024
Flags: HW
LayerCount: 2
Fore
SplineSet
244 550 m 1
 217.333 574.667 190.333 584.5 163 579.5 c 128
 135.667 574.5 119.667 562.5 115 543.5 c 128
 110.333 524.5 97 515.333 75 516 c 128
 53 516.667 36 519.167 24 523.5 c 128
 12 527.833 6 539.667 6 559 c 128
 6 578.333 15.6667 596.167 35 612.5 c 128
 54.3333 628.833 84 637.333 124 638 c 128
 164 638.662 197.333 630.828 224 614.5 c 128
 250.667 598.167 277 576.667 303 550 c 1
 244 550 l 1
878 666 m 1
 905.333 666.667 927.167 663 943.5 655 c 128
 959.833 647 968.333 628 969 598 c 1
 935 584 914.5 563.5 907.5 536.5 c 128
 900.5 509.5 902.5 475.333 913.5 434 c 128
 924.5 392.667 962.667 334.333 1028 259 c 1
 946 300.333 888.833 347.167 856.5 399.5 c 128
 824.167 451.834 809.5 496.167 812.5 532.5 c 128
 815.5 568.833 821.833 596.667 831.5 616 c 128
 841.167 635.333 856.667 652 878 666 c 1
223 565 m 1
 872 565 l 1
 872 -112 l 1
 223 -112 l 1
 223 565 l 1
256 529 m 1
 256 -77 l 1
 839 -77 l 1
 839 529 l 1
 256 529 l 1
EndSplineSet
EndChar

StartChar: u115BB
Encoding: 315 71099 56
Width: 1024
Flags: HW
LayerCount: 2
Fore
SplineSet
418 483 m 1
 407.333 517.668 394.833 538.834 380.5 546.5 c 128
 366.167 554.167 344.5 566 315.5 582 c 128
 286.5 598 268.5 616.167 261.5 636.5 c 128
 254.5 656.833 255.5 675.167 264.5 691.5 c 128
 273.5 707.833 288 721.667 308 733 c 128
 328 744.333 363.167 751.333 413.5 754 c 128
 463.833 756.667 507.833 747.667 545.5 727 c 128
 583.169 706.333 599.336 682.5 594 655.5 c 128
 588.667 628.5 569.167 611.667 535.5 605 c 128
 501.833 598.333 471.833 600.5 445.5 611.5 c 128
 419.167 622.5 411.167 631 421.5 637 c 128
 431.833 643 450.333 645 477 643 c 128
 503.667 641 520.5 644.833 527.5 654.5 c 128
 534.5 664.167 532.333 673.667 521 683 c 128
 509.667 692.333 490 698.833 462 702.5 c 128
 434 706.167 408 706 384 702 c 128
 360 698 343.833 691.167 335.5 681.5 c 128
 327.167 671.833 325 657.333 329 638 c 128
 333 618.667 356.833 602.5 400.5 589.5 c 128
 444.167 576.5 478.333 541 503 483 c 1
 418 483 l 1
283 485 m 1
 254.333 519 225.333 538.333 196 543 c 128
 166.667 547.667 139.667 534 115 502 c 1
 112.333 472.667 100.667 457.667 80 457 c 128
 59.3333 456.335 33.6667 467.668 3 491 c 1
 15 534.333 36.1667 564.833 66.5 582.5 c 128
 96.8333 600.167 125.333 607.5 152 604.5 c 128
 178.667 601.5 206.833 591 236.5 573 c 128
 266.167 555 300 525.667 338 485 c 1
 283 485 l 1
264 492 m 1
 887 492 l 1
 887 -158 l 1
 264 -158 l 1
 264 492 l 1
295 458 m 1
 295 -125 l 1
 856 -125 l 1
 856 458 l 1
 295 458 l 1
874 603 m 1
 901.333 603.667 923.167 600 939.5 592 c 128
 955.833 584 964.333 565 965 535 c 1
 931 521 910.5 500.5 903.5 473.5 c 128
 896.5 446.5 898.5 412.333 909.5 371 c 128
 920.5 329.667 958.667 271.333 1024 196 c 1
 942 237.333 884.833 284.167 852.5 336.5 c 128
 820.167 388.834 805.5 433.167 808.5 469.5 c 128
 811.5 505.833 817.833 533.667 827.5 553 c 128
 837.167 572.333 852.667 589 874 603 c 1
EndSplineSet
EndChar

StartChar: u115BC
Encoding: 316 71100 57
Width: 1024
Flags: HW
LayerCount: 2
Fore
SplineSet
685 671 m 1
 725.668 670.333 752.835 661 766.5 643 c 128
 780.167 625 779.667 598 765 562 c 1
 702.333 523.333 646.833 503.167 598.5 501.5 c 128
 550.167 499.837 501.667 505.171 453 517.5 c 128
 404.333 529.833 344 556.333 272 597 c 1
 258 627 l 1
 346 597 412.833 580.5 458.5 577.5 c 128
 504.167 574.5 545.333 580.667 582 596 c 128
 618.667 611.333 653 636.333 685 671 c 1
206 451 m 1
 873 451 l 1
 873 -185 l 1
 206 -185 l 1
 206 451 l 1
240 420 m 1
 240 -158 l 1
 839 -158 l 1
 839 420 l 1
 240 420 l 1
514 788 m 1
 567.333 786.664 595 764.33 597 721 c 1
 601 669 574.333 641.333 517 638 c 1
 462.333 643.333 435.333 669.333 436 716 c 1
 440 761.333 466 785.333 514 788 c 1
EndSplineSet
EndChar

StartChar: u115BD
Encoding: 317 71101 58
Width: 1024
Flags: HW
LayerCount: 2
Fore
SplineSet
137 565 m 1
 888 565 l 1
 890 -177 l 1
 137 -177 l 1
 137 565 l 1
175 528 m 1
 173 -140 l 1
 849 -140 l 1
 849 528 l 1
 175 528 l 1
512 784 m 1
 564 789.333 592.333 768.333 597 721 c 1
 601 669 574.333 639.333 517 632 c 1
 461 638.667 431.333 666.667 428 716 c 1
 436 765.333 464 788 512 784 c 1
EndSplineSet
EndChar

StartChar: u115BE
Encoding: 318 71102 59
Width: 1024
Flags: HWO
LayerCount: 2
Fore
SplineSet
15 712 m 1
 779 712 l 1
 781 -108 l 1
 15 -108 l 1
 15 712 l 1
54 672 m 1
 51 -67 l 1
 739 -67 l 1
 739 671 l 1
 54 672 l 1
933 217 m 1
 985 222.333 1013.33 201.333 1018 154 c 1
 1022 102 995.333 72.3333 938 65 c 1
 882 71.6667 852.333 99.6667 849 149 c 1
 857 198.333 885 221 933 217 c 1
921 583 m 1
 973 588.333 1001.33 567.333 1006 520 c 1
 1010 468 983.333 438.333 926 431 c 1
 870 437.667 840.333 465.667 837 515 c 1
 845 564.333 873 587 921 583 c 1
EndSplineSet
EndChar

StartChar: u115C6
Encoding: 326 71110 60
Width: 1024
Flags: HW
LayerCount: 2
Fore
SplineSet
470 727 m 1
 547.333 708.333 595.667 678 615 636 c 128
 634.333 594 641.5 547.667 636.5 497 c 128
 631.5 446.333 597.333 378.666 534 294 c 1
 675.333 190.667 773.167 101.333 827.5 26 c 128
 881.833 -49.3333 898.333 -98.3333 877 -121 c 1
 819 -131.667 765 -100.167 715 -26.5 c 128
 665 47.1667 620.667 100 582 132 c 128
 543.333 164 514 184.167 494 192.5 c 128
 474 200.833 448 203.667 416 201 c 128
 384 198.333 350.667 178 316 140 c 128
 281.333 102 240.333 72.6667 193 52 c 1
 167 74.6667 153.5 100 152.5 128 c 128
 151.5 156 167.333 187 200 221 c 1
 262 261 309 287.833 341 301.5 c 128
 373 315.167 409.667 342 451 382 c 128
 492.334 422 516.334 469 523 523 c 1
 510.333 580.333 485.333 610.333 448 613 c 1
 412.667 609.664 393 592.831 389 562.5 c 128
 385 532.167 410 507 464 487 c 1
 449.332 443 428.166 421.667 400.5 423 c 128
 372.833 424.334 337.666 440.668 295 472 c 128
 252.333 503.333 244.333 557 271 633 c 1
 297.667 671.667 326.5 697.667 357.5 711 c 128
 388.5 724.333 426 729.667 470 727 c 1
EndSplineSet
EndChar

StartChar: u115C7
Encoding: 327 71111 61
Width: 1024
Flags: HW
LayerCount: 2
Fore
SplineSet
457 746 m 1
 497 736 535 694 571 620 c 1
 597 537 l 1
 657.667 539.667 706.667 530.5 744 509.5 c 128
 781.333 488.5 805.5 458.5 816.5 419.5 c 128
 827.5 380.5 831.667 346.333 829 317 c 128
 826.333 287.667 817.833 257.833 803.5 227.5 c 128
 789.167 197.167 759 170.167 713 146.5 c 128
 667 122.833 618.667 120.666 568 140 c 1
 548 101 l 1
 569.333 66.3333 603.5 48 650.5 46 c 128
 697.5 44 721.333 14 722 -44 c 1
 700.667 -97.3333 668.667 -130.333 626 -143 c 128
 583.333 -155.667 512.333 -157 413 -147 c 1
 497 -111 551.667 -77 577 -45 c 1
 515.667 -23.6667 477.333 -6.66667 462 6 c 128
 446.667 18.6667 435.5 36 428.5 58 c 128
 421.5 80 422 105.833 430 135.5 c 128
 438 165.167 448.833 198.167 462.5 234.5 c 128
 476.167 270.833 480 318 474 376 c 1
 370 294 l 1
 372.667 238 365.833 195.667 349.5 167 c 128
 333.167 138.333 303.667 123 261 121 c 1
 239 151 229.667 184.667 233 222 c 128
 236.333 259.333 236.833 292.5 234.5 321.5 c 128
 232.166 350.5 224.333 386 211 428 c 1
 239.667 456.667 262.833 463.5 280.5 448.5 c 128
 298.167 433.5 319 427 343 429 c 1
 371.667 454.334 413.333 477.667 468 499 c 1
 466.667 569 431 641 361 715 c 1
 381.667 741 413.667 751.333 457 746 c 1
605 411 m 1
 608.333 345.667 602.333 286 587 232 c 1
 661.668 242 703.335 267.333 712 308 c 128
 720.645 348.667 718.311 377.167 705 393.5 c 128
 691.665 409.835 658.332 415.668 605 411 c 1
EndSplineSet
EndChar

StartChar: u115C8
Encoding: 328 71112 62
Width: 1024
Flags: HW
LayerCount: 2
Fore
SplineSet
618 660 m 1
 730 654 783.833 607.667 779.5 521 c 128
 775.167 434.333 770.5 373 765.5 337 c 128
 760.5 301 738.833 279 700.5 271 c 128
 662.167 263 609.5 258.167 542.5 256.5 c 128
 475.5 254.833 431.167 251.167 409.5 245.5 c 128
 387.833 239.833 374.833 228.667 370.5 212 c 128
 366.167 195.333 370.667 147 384 67 c 1
 407.333 49 462 46 548 58 c 128
 634 70 691.667 81.5 721 92.5 c 128
 750.333 103.5 773.167 98.8333 789.5 78.5 c 128
 805.833 58.1667 810.667 32.6667 804 2 c 1
 784 -32.6667 699.833 -53.6667 551.5 -61 c 128
 403.167 -68.3333 312.333 -51 279 -9 c 1
 265 15.6667 256.333 67.6667 253 147 c 128
 249.67 226.333 251.337 275.667 258 295 c 1
 278.667 333 322.333 355.667 389 363 c 128
 455.667 370.333 539 373.333 639 372 c 1
 657 420 657.667 468 641 516 c 1
 587.666 530 527.833 529.833 461.5 515.5 c 128
 395.167 501.167 347.333 495.333 318 498 c 128
 288.667 500.667 264.667 517.5 246 548.5 c 128
 227.333 579.5 227 606.333 245 629 c 1
 274.333 639 329.333 647.667 410 655 c 128
 490.667 662.333 560 664 618 660 c 1
EndSplineSet
EndChar

StartChar: u115C9
Encoding: 329 71113 63
Width: 1024
Flags: HW
LayerCount: 2
Fore
SplineSet
596 754 m 1
 699 754 l 1
 700 -131 l 1
 595 -132 l 1
 596 754 l 1
827 251 m 1
 869.667 252.333 896 240.833 906 216.5 c 128
 916 192.167 917.333 170.667 910 152 c 128
 902.667 133.333 889.667 119.333 871 110 c 128
 852.333 100.667 832.833 100.5 812.5 109.5 c 128
 792.164 118.5 778.83 131.667 772.5 149 c 128
 766.167 166.333 767.667 186.5 777 209.5 c 128
 786.333 232.5 803 246.333 827 251 c 1
823 576 m 0
 861.67 580 886.837 569.167 898.5 543.5 c 128
 910.194 517.833 912.361 495.667 905 477 c 128
 897.667 458.333 884.667 444.5 866 435.5 c 128
 847.333 426.5 827.833 426.333 807.5 435 c 128
 787.161 443.667 773.827 456.667 767.5 474 c 128
 761.167 491.333 761.833 512 769.5 536 c 128
 777.167 560 795 573.333 823 576 c 0
189 244 m 1
 231.667 245.333 258 233.833 268 209.5 c 128
 278 185.167 279.333 163.833 272 145.5 c 128
 264.667 127.167 251.667 113.333 233 104 c 128
 214.333 94.6667 194.833 94.3333 174.5 103 c 128
 154.166 111.667 140.833 124.667 134.5 142 c 128
 128.167 159.333 129.667 179.667 139 203 c 128
 148.333 226.333 165 240 189 244 c 1
187 570 m 1
 223 572.667 246.833 561.5 258.5 536.5 c 128
 270.167 511.5 272.333 489.667 265 471 c 128
 257.667 452.333 244.667 438.333 226 429 c 128
 207.333 419.667 187.833 419.5 167.5 428.5 c 128
 147.166 437.5 133.833 450.5 127.5 467.5 c 128
 121.167 484.5 122.167 504.667 130.5 528 c 128
 138.833 551.333 157.667 565.333 187 570 c 1
350 748 m 1
 453 748 l 1
 454 -137 l 1
 349 -138 l 1
 350 748 l 1
EndSplineSet
EndChar

StartChar: u115CB
Encoding: 331 71115 64
Width: 1024
Flags: HW
LayerCount: 2
Fore
SplineSet
100 274 m 1
 100 308.667 117 327.667 151 331 c 1
 185 325 199.667 302.667 195 264 c 1
 189.667 244 173.667 232.333 147 229 c 1
 121 234.333 105.333 249.333 100 274 c 1
727 743 m 1
 739.689 727.667 742.356 712.167 735 696.5 c 128
 727.667 680.833 731 662.333 745 641 c 1
 763.667 665.667 778.667 683 790 693 c 128
 801.333 703 812.333 697 823 675 c 1
 790 614 l 1
 814 602 837 611 859 641 c 1
 880.333 622.333 886.333 607 877 595 c 128
 867.667 583 854.667 572.5 838 563.5 c 128
 821.333 554.5 793 552 753 556 c 1
 615 362 l 1
 633.672 340.667 642.338 318.167 641 294.5 c 128
 639.662 270.833 631.328 248 616 226 c 1
 741 84 l 1
 825.667 105.333 880.334 77 905 -1 c 1
 880 -35 l 1
 856 15.6667 823 37.6667 781 31 c 1
 819.667 -6.33333 849.667 -44.6667 871 -84 c 1
 847.667 -96.6667 821.667 -83.3333 793 -44 c 1
 752 -2 l 1
 728.667 -14 737.667 -44.6667 779 -94 c 1
 732 -100 l 1
 678 -52.6667 666 -3.33333 696 48 c 1
 571 180 l 1
 537.667 165.333 506.333 163.667 477 175 c 1
 352 9 l 1
 374 -39 379.667 -80.3333 369 -115 c 128
 358.333 -149.667 334 -154.333 296 -129 c 1
 322.667 -96.3334 326.667 -69.3334 308 -48 c 1
 265.333 -116.667 236.667 -148.333 222 -143 c 1
 205 -112 l 1
 205.667 -87.3333 222.667 -56.3333 256 -19 c 1
 233.333 -11.6667 204.333 -21.6667 169 -49 c 1
 144.333 -39.6667 140.667 -18 158 16 c 1
 200 42.6667 246.667 51.3333 298 42 c 1
 416 204 l 1
 386.667 235.333 371.667 263.667 371 289 c 128
 370.333 314.333 380 343.333 400 376 c 1
 258 540 l 1
 218 534 187 535 165 543 c 1
 152.333 553 145.667 569.667 145 593 c 1
 221 592 l 1
 191.667 620.667 181 645 189 665 c 1
 217 679 l 1
 243 657 l 1
 264 630 l 1
 277.333 656 281.5 679.167 276.5 699.5 c 128
 271.5 719.833 288 726.333 326 719 c 1
 332.667 696.333 335.5 673.833 334.5 651.5 c 128
 333.5 629.164 327.667 603.331 317 574 c 1
 459 411 l 1
 494.333 429 527 427.333 557 406 c 1
 700 600 l 1
 692 636.667 688 663 688 679 c 128
 688 695 701 716.333 727 743 c 1
221 416 m 1
 254.333 405.333 276.333 392.333 287 377 c 128
 297.667 361.667 306.667 342.5 314 319.5 c 128
 321.333 296.5 318.833 272 306.5 246 c 128
 294.167 220 270.667 190.667 236 158 c 1
 218 186 216 209 230 227 c 128
 244 245 251.667 266.333 253 291 c 128
 254.333 315.667 244.5 337.5 223.5 356.5 c 128
 202.5 375.5 201.667 395.333 221 416 c 1
445 291 m 1
 453 252.333 474 232.667 508 232 c 1
 549.333 233.333 570.333 251.667 571 287 c 1
 569 328.334 547.333 350.667 506 354 c 1
 465.333 348.667 445 327.667 445 291 c 1
529 -126 m 1
 506.333 -121.333 492.333 -107.333 487 -84 c 1
 490.333 -60 501.333 -45.6667 520 -41 c 1
 556 -37 576.667 -50 582 -80 c 1
 578.667 -110.667 561 -126 529 -126 c 1
648 -25 m 1
 628.667 -42.3333 610.167 -41.5 592.5 -22.5 c 128
 574.833 -3.5 554.5 5.33333 531.5 4 c 128
 508.5 2.66667 489.667 -5 475 -19 c 128
 460.333 -33 438 -30.3333 408 -11 c 1
 432 19.6667 457.667 40.5 485 51.5 c 128
 512.333 62.5 536.667 64.8333 558 58.5 c 128
 579.333 52.1667 597.167 44.1667 611.5 34.5 c 128
 625.833 24.8333 638 5 648 -25 c 1
938 324 m 1
 938 290.667 920.667 272 886 268 c 1
 852 274 837.333 296 842 334 c 1
 846.667 353.333 862.667 365 890 369 c 1
 916.667 363 932.667 348 938 324 c 1
816 188 m 1
 782 198.667 759.5 211.667 748.5 227 c 128
 737.5 242.333 728.333 261.167 721 283.5 c 128
 713.688 305.833 716.355 329.667 729 355 c 128
 741.668 380.333 765.335 409 800 441 c 1
 818 413.667 820 391.167 806 373.5 c 128
 792 355.833 784.333 334.833 783 310.5 c 128
 781.667 286.167 791.667 264.833 813 246.5 c 128
 834.333 228.167 835.333 208.667 816 188 c 1
503 718 m 1
 535 718 552.667 702.667 556 672 c 1
 550.667 642 530 629 494 633 c 1
 475.333 637.667 464.333 652 461 676 c 1
 466.333 699.333 480.333 713.333 503 718 c 1
632 614 m 1
 622 584 609.833 564.167 595.5 554.5 c 128
 581.164 544.833 563.331 536.833 542 530.5 c 128
 520.666 524.167 497.166 526.167 471.5 536.5 c 128
 445.833 546.833 418.333 564.667 389 590 c 1
 417 612.676 439.333 617.843 456 605.5 c 128
 472.667 593.158 492.5 586.324 515.5 585 c 128
 538.5 583.667 558.833 592.5 576.5 611.5 c 128
 594.167 630.5 612.667 631.333 632 614 c 1
EndSplineSet
EndChar

StartChar: u115CC
Encoding: 332 71116 65
Width: 1024
Flags: HW
LayerCount: 2
Fore
SplineSet
477 795 m 1
 509.667 795 537 787.333 559 772 c 128
 581 756.667 586 731.667 574 697 c 1
 544 667 515.667 651.5 489 650.5 c 128
 462.333 649.5 431.666 656.333 397 671 c 1
 388 759 l 1
 477 795 l 1
733 733 m 1
 750.333 733.667 759.5 733 760.5 731 c 128
 761.5 729 761.333 717.667 760 697 c 1
 704.666 651.665 649.833 607.332 595.5 564 c 128
 541.166 520.667 475 512 397 538 c 1
 211 697 l 1
 264 680 l 1
 297.333 630 342.167 595.833 398.5 577.5 c 128
 454.833 559.167 510.333 560.667 565 582 c 1
 733 733 l 1
848 689 m 1
 893 680 l 1
 805.667 600 741.5 526 700.5 458 c 128
 659.5 390 661.667 298.667 707 184 c 1
 972 -55 l 1
 910 -81 l 1
 856 8.33334 786.167 77.6667 700.5 127 c 128
 614.833 176.333 522.667 168.667 424 104 c 1
 402.667 66 367.167 22 317.5 -28 c 128
 267.833 -78 223.667 -93 185 -73 c 1
 280.333 -9.66667 342.333 67.5 371 158.5 c 128
 399.667 249.5 381.667 346.667 317 450 c 1
 290.333 474 256.333 506.5 215 547.5 c 128
 173.667 588.5 154.667 623.667 158 653 c 1
 397 450 l 1
 600 450 l 1
 848 689 l 1
928 609 m 1
 972 573 l 1
 904.665 529.667 858.332 481.333 833 428 c 128
 807.667 374.667 809.667 311 839 237 c 1
 1016 122 l 1
 990.665 104.667 967.331 98.1667 946 102.5 c 128
 924.667 106.833 901 116.333 875 131 c 1
 809 195 771.5 256.333 762.5 315 c 128
 753.5 373.667 773.333 442 822 520 c 1
 928 609 l 1
105 512 m 1
 195 477.333 255.333 419.5 286 338.5 c 128
 316.667 257.5 312.333 173.667 273 87 c 1
 244.333 64.3333 218.667 42.8333 196 22.5 c 128
 173.333 2.16667 143 -14.6667 105 -28 c 1
 105 -11 l 1
 147.667 27.6667 185.167 67.8333 217.5 109.5 c 128
 249.833 151.167 262.333 202.667 255 264 c 1
 229 370 l 1
 105 512 l 1
954 414 m 1
 989.333 401.333 1011 384.666 1019 364 c 128
 1027 343.333 1026 315.666 1016 281 c 1
 995.333 268.331 976.5 263.165 959.5 265.5 c 128
 942.5 267.833 923 276 901 290 c 1
 875 379 l 1
 954 414 l 1
415 335 m 1
 450 228 l 1
 488 214.665 517 212.332 537 221 c 128
 557 229.667 581 249.667 609 281 c 1
 608.333 312.334 597.167 337.667 575.5 357 c 128
 553.833 376.335 526.667 386.668 494 388 c 1
 415 335 l 1
70 343 m 1
 115.333 341.667 147.167 326.5 165.5 297.5 c 128
 183.833 268.5 184.333 233.667 167 193 c 1
 146.333 179.667 127 170.667 109 166 c 128
 91 161.333 69 161.333 43 166 c 1
 28.3333 200 20.3333 229.167 19 253.5 c 128
 17.6667 277.834 34.6667 307.667 70 343 c 1
574 69 m 1
 626.668 67 678.835 46.1667 730.5 6.5 c 128
 782.167 -33.1667 809.667 -80 813 -134 c 1
 786 -134 l 1
 744.667 -67.3333 700.667 -23.5 654 -2.5 c 128
 607.333 18.5 545.333 10 468 -28 c 1
 450 -50 429.167 -75.6667 405.5 -105 c 128
 381.833 -134.333 358.333 -144 335 -134 c 1
 362 -73 l 1
 392 -41.6667 422.667 -14 454 10 c 128
 485.334 34 525.334 53.6667 574 69 c 1
539 -64 m 1
 575 -64 603.167 -72.8333 623.5 -90.5 c 128
 643.833 -108.167 654 -134.667 654 -170 c 1
 512 -188 l 1
 495.331 -166 489.665 -145.667 495 -127 c 128
 500.333 -108.333 515 -87.3333 539 -64 c 1
EndSplineSet
EndChar

StartChar: u115CD
Encoding: 333 71117 66
Width: 1024
Flags: HW
LayerCount: 2
Fore
SplineSet
517 750 m 1
 545 750 560.667 734.333 564 703 c 1
 559.333 672.333 541 659 509 663 c 1
 493 667.669 483.667 682.336 481 707 c 1
 485.667 731 497.667 745.333 517 750 c 1
770 154 m 1
 736.667 166 714.667 180.333 704 197 c 128
 693.333 213.667 684.5 234.5 677.5 259.5 c 128
 670.5 284.5 673.167 311.167 685.5 339.5 c 128
 697.833 367.833 720.667 400 754 436 c 1
 772 405.333 774.167 380.166 760.5 360.5 c 128
 746.833 340.833 739.333 317.5 738 290.5 c 128
 736.672 263.5 746.339 239.667 767 219 c 128
 787.667 198.333 788.667 176.667 770 154 c 1
864 194 m 1
 832.667 203.333 812 214.333 802 227 c 128
 792 239.667 783.667 255.334 777 274 c 128
 770.333 292.667 772.667 312.667 784 334 c 128
 795.333 355.334 817 379.667 849 407 c 1
 865.667 383.667 867.667 364.667 855 350 c 128
 842.333 335.333 835.333 317.833 834 297.5 c 128
 832.673 277.167 841.84 259.167 861.5 243.5 c 128
 881.167 227.833 882 211.333 864 194 c 1
453 291 m 1
 459 253.667 477.333 234.667 508 234 c 1
 546 240.667 564.333 258.333 563 287 c 1
 564.333 323.667 545.333 341 506 339 c 1
 476 340.333 458.333 324.333 453 291 c 1
322 564 m 1
 469 392 l 1
 497.667 413.333 527.667 412.333 559 389 c 1
 605.667 438.333 682.333 534 789 676 c 1
 829 688.667 850.667 671 854 623 c 1
 800 573.667 720.333 478.667 615 338 c 1
 633.667 330 634 292.333 616 225 c 1
 750.667 100.333 840.667 2 886 -70 c 1
 864 -96 835.333 -94.6667 800 -66 c 1
 574 186 l 1
 538.667 168 504.667 164.667 472 176 c 1
 397.333 93.3333 343 18.6667 309 -48 c 1
 279 -96 245 -113.667 207 -101 c 1
 200 -65 l 1
 207.333 -34.3333 245.667 19.6667 315 97 c 1
 419 218 l 1
 386.333 260.667 384 308.667 412 362 c 1
 263 530 l 1
 199 592.668 171 637.335 179 664 c 1
 220 688 l 1
 256 658 l 1
 322 564 l 1
962 308 m 1
 962 278.667 948 262.333 920 259 c 1
 892.667 263.667 880.667 282.667 884 316 c 1
 888 333.333 901.333 343.333 924 346 c 1
 944.67 341.333 957.337 328.666 962 308 c 1
653 560 m 1
 641.667 526.667 628 504.667 612 494 c 128
 596 483.333 576.167 474.5 552.5 467.5 c 128
 528.833 460.5 503.5 463.167 476.5 475.5 c 128
 449.5 487.834 419 510.667 385 544 c 1
 414.333 562 438.333 564.167 457 550.5 c 128
 475.667 536.833 497.833 529.333 523.5 528 c 128
 549.168 526.671 571.834 536.337 591.5 557 c 128
 611.167 577.667 631.667 578.667 653 560 c 1
614 654 m 1
 605.333 622.667 595 602 583 592 c 128
 571 582 556 573.667 538 567 c 128
 520 560.333 501 562.667 481 574 c 128
 461 585.333 438 607 412 639 c 1
 434 655.667 452 657.667 466 645 c 128
 480 632.333 496.667 625.333 516 624 c 128
 535.333 622.671 552.333 631.838 567 651.5 c 128
 581.669 671.167 597.336 672 614 654 c 1
70 292 m 1
 75.3333 312.667 90 325.333 114 330 c 1
 138.667 327.333 153.667 317.333 159 300 c 1
 163 266.667 149.333 247.667 118 243 c 1
 86 246.333 70 262.667 70 292 c 1
261 146 m 1
 242.333 168.667 243.333 190.334 264 211 c 128
 284.667 231.667 294.333 255.5 293 282.5 c 128
 291.667 309.5 284.167 332.833 270.5 352.5 c 128
 256.833 372.167 259 397.333 277 428 c 1
 310.333 392 333.167 359.833 345.5 331.5 c 128
 357.833 303.167 360.5 276.5 353.5 251.5 c 128
 346.5 226.5 337.667 205.667 327 189 c 128
 316.333 172.333 294.333 158 261 146 c 1
167 186 m 1
 149 203.333 149.833 219.833 169.5 235.5 c 128
 189.167 251.167 198.334 269.167 197 289.5 c 128
 195.667 309.833 188.667 327.333 176 342 c 128
 163.333 356.667 165.333 375.667 182 399 c 1
 214 371.667 235.667 347.333 247 326 c 128
 258.337 304.667 260.671 284.667 254 266 c 128
 247.333 247.333 239 231.667 229 219 c 128
 219 206.333 198.333 195.333 167 186 c 1
526 -178 m 1
 506 -172.667 493.667 -157.333 489 -132 c 1
 491.667 -106 501.333 -90.3333 518 -85 c 1
 550 -81 568.333 -95.3333 573 -128 c 1
 569.667 -161.333 554 -178 526 -178 c 1
666 15 m 1
 644 -3.66667 623.167 -2.66667 603.5 18 c 128
 583.833 38.6667 561 48.3333 535 47 c 128
 509 45.6667 486.5 38.1667 467.5 24.5 c 128
 448.5 10.8333 424.333 13 395 31 c 1
 429.667 64.3333 460.667 87.1667 488 99.5 c 128
 515.333 111.833 541 114.5 565 107.5 c 128
 589 100.5 609 91.6667 625 81 c 128
 641 70.3333 654.667 48.3333 666 15 c 1
628 -79 m 1
 611.333 -97 595.333 -96.1667 580 -76.5 c 128
 564.665 -56.8333 547.331 -47.6667 528 -49 c 128
 508.667 -50.3333 492 -57.3333 478 -70 c 128
 464 -82.6667 445.667 -80.6667 423 -64 c 1
 449 -32 472.333 -10.3333 493 1 c 128
 513.667 12.3333 533 14.6667 551 8 c 128
 569 1.33333 584 -7 596 -17 c 128
 608 -27 618.667 -47.6667 628 -79 c 1
EndSplineSet
EndChar

StartChar: u115D2
Encoding: 338 71122 67
Width: 1024
Flags: HW
LayerCount: 2
Fore
SplineSet
518 416 m 1
 589.333 413.333 638.5 399.166 665.5 373.5 c 128
 692.5 347.833 704 320.5 700 291.5 c 128
 696 262.5 680.167 239.667 652.5 223 c 128
 624.833 206.333 589.667 196.5 547 193.5 c 128
 504.333 190.5 466 197.833 432 215.5 c 128
 398 233.167 378.667 256 374 284 c 128
 369.333 312 376.5 338.833 395.5 364.5 c 128
 414.5 390.167 455.333 407.333 518 416 c 1
533 360 m 1
 497 348.667 473.833 334.667 463.5 318 c 128
 453.167 301.333 456.333 285.666 473 271 c 128
 489.667 256.333 511.5 250.167 538.5 252.5 c 128
 565.5 254.833 586.667 263.5 602 278.5 c 128
 617.333 293.5 619.5 309.167 608.5 325.5 c 128
 597.5 341.833 572.333 353.333 533 360 c 1
530 -201 m 1
 510.667 -196.334 498.667 -182.667 494 -160 c 1
 496.667 -136.667 506 -123 522 -119 c 1
 554 -115 572.333 -127.667 577 -157 c 1
 573.667 -186.333 558 -201 530 -201 c 1
707 91 m 1
 677 71 650.833 70 628.5 88 c 128
 606.167 106 577 115.167 541 115.5 c 128
 505 115.833 473.833 106.667 447.5 88 c 128
 421.167 69.3333 394 71.3333 366 94 c 1
 400.667 131.333 437 154.333 475 163 c 128
 513 171.669 548.667 173.336 582 168 c 128
 615.333 162.666 643.167 155.833 665.5 147.5 c 128
 687.833 139.167 701.667 120.333 707 91 c 1
627 -110 m 1
 610.333 -127.333 594.667 -126.667 580 -108 c 128
 565.333 -89.3333 548.333 -80.6667 529 -82 c 128
 509.667 -83.3333 493 -90 479 -102 c 128
 465 -114 447 -112 425 -96 c 1
 451 -66 474 -45.6667 494 -35 c 128
 514 -24.3334 533 -22 551 -28 c 128
 569 -34 584 -41.8333 596 -51.5 c 128
 608 -61.1667 618.333 -80.6667 627 -110 c 1
666 -21 m 1
 644.667 -39 624.167 -38.1667 604.5 -18.5 c 128
 584.833 1.16667 562.167 10.3333 536.5 9 c 128
 510.832 7.66667 488.666 0.5 470 -12.5 c 128
 451.333 -25.5 427.333 -23.3333 398 -6 c 1
 432 25.3333 462.5 46.8333 489.5 58.5 c 128
 516.5 70.1667 541.833 72.6667 565.5 66 c 128
 589.167 59.3333 609 51 625 41 c 128
 641 31 654.667 10.3333 666 -21 c 1
533 817 m 1
 561 817 576.667 802.333 580 773 c 1
 575.333 743.667 557 731 525 735 c 1
 509 739 499.667 752.667 497 776 c 1
 501.667 798.67 513.667 812.336 533 817 c 1
710 525 m 1
 704.664 495.667 690.831 476.833 668.5 468.5 c 128
 646.164 460.167 618.331 453.333 585 448 c 128
 551.667 442.667 516 444.333 478 453 c 128
 440 461.667 403.667 484.667 369 522 c 1
 397 544.667 424.167 546.667 450.5 528 c 128
 476.833 509.331 508 500.165 544 500.5 c 128
 580 500.833 609.167 510 631.5 528 c 128
 653.833 546 680 545 710 525 c 1
630 726 m 1
 621.333 696.667 611 677.167 599 667.5 c 128
 587 657.833 572 650 554 644 c 128
 536 638 517 640.333 497 651 c 128
 477 661.667 454 682 428 712 c 1
 450 728 468 730 482 718 c 128
 496 706 512.667 699.333 532 698 c 128
 551.333 696.672 568.333 705.339 583 724 c 128
 597.669 742.689 613.336 743.356 630 726 c 1
669 637 m 1
 657.667 605.667 644 585 628 575 c 128
 612 565 592.167 556.667 568.5 550 c 128
 544.833 543.333 519.5 545.833 492.5 557.5 c 128
 465.5 569.167 435 590.667 401 622 c 1
 430.333 639.333 454.333 641.5 473 628.5 c 128
 491.667 615.5 513.833 608.333 539.5 607 c 128
 565.167 605.671 587.834 614.838 607.5 634.5 c 128
 627.167 654.167 647.667 655 669 637 c 1
EndSplineSet
EndChar

StartChar: u115D8
Encoding: 344 71128 68
Width: 1024
Flags: HW
LayerCount: 2
Fore
SplineSet
526 782 m 1
 606 735 l 1
 641.333 710.333 667.5 677.5 684.5 636.5 c 128
 701.5 595.5 703 555.333 689 516 c 1
 651 474 l 1
 615 471 l 1
 571 453 l 1
 537.667 447.667 506.5 449.833 477.5 459.5 c 128
 448.5 469.167 419.333 482 390 498 c 1
 372 523.333 359 548.167 351 572.5 c 128
 343 596.833 345.333 624.333 358 655 c 1
 388 685.667 413.333 709.167 434 725.5 c 128
 454.667 741.833 485.333 760.667 526 782 c 1
571 652 m 1
 539 640.667 516.333 631.667 503 625 c 128
 489.667 618.333 470.667 602.667 446 578 c 1
 443.333 566 443.167 556.667 445.5 550 c 128
 447.833 543.333 453 535.667 461 527 c 1
 485.667 515.667 510 513.667 534 521 c 128
 558 528.333 579 541.333 597 560 c 1
 606.333 575.333 608.167 592 602.5 610 c 128
 596.833 628 586.333 642 571 652 c 1
813 202 m 1
 849 181 l 1
 884 169 l 1
 917.333 151.667 948.667 120.5 978 75.5 c 128
 1007.33 30.5 1017.67 -11 1009 -49 c 1
 991 -85 l 1
 975 -102.333 962 -112.833 952 -116.5 c 128
 942 -120.166 926.333 -123.333 905 -126 c 1
 868.333 -133.333 840.667 -136 822 -134 c 128
 803.333 -132 776.667 -121.667 742 -103 c 1
 720.667 -82.3333 702.667 -58.3333 688 -31 c 128
 673.333 -3.66667 667.667 25.6667 671 57 c 1
 707 122 l 1
 813 202 l 1
204 184 m 1
 220.667 168.667 239 158.667 259 154 c 128
 279 149.333 300 142.667 322 134 c 1
 349.334 118.667 368.667 99.3333 380 76 c 128
 391.335 52.6667 400.668 27.6667 408 1 c 1
 417.333 -21.6667 424.5 -39.6667 429.5 -53 c 128
 434.5 -66.3333 429.333 -86 414 -112 c 1
 361 -156 l 1
 316 -156 l 1
 281 -168 l 1
 256.333 -170.667 225.5 -169.667 188.5 -165 c 128
 151.5 -160.333 122 -152.333 100 -141 c 1
 70 -113 45.6667 -81 27 -45 c 128
 8.33333 -9 10 30 32 72 c 1
 58 96 85.3333 115.5 114 130.5 c 128
 142.667 145.5 172.667 163.333 204 184 c 1
869 90 m 1
 853 87.3332 839.833 83.1665 829.5 77.5 c 128
 819.167 71.8333 808.667 64 798 54 c 1
 786.665 30.6667 781.332 10.3333 782 -7 c 128
 782.667 -24.3333 790 -43.3333 804 -64 c 1
 828 -71.3333 847.833 -70.3333 863.5 -61 c 128
 879.167 -51.6667 894 -39 908 -23 c 1
 921.333 -2.33333 924 19.3333 916 42 c 128
 908 64.6667 892.333 80.6667 869 90 c 1
222 60 m 1
 204.667 56 189.5 48.1667 176.5 36.5 c 128
 163.5 24.8333 151 13 139 1 c 1
 134.333 -11 131.167 -22.3333 129.5 -33 c 128
 127.833 -43.6667 131 -53 139 -61 c 1
 166.333 -78.3333 194.5 -82.8333 223.5 -74.5 c 128
 252.5 -66.1667 277.333 -51 298 -29 c 1
 308 -11 312.333 6.33333 311 23 c 128
 309.667 39.6667 299.667 55 281 69 c 1
 222 60 l 1
EndSplineSet
EndChar

StartChar: u115D9
Encoding: 345 71129 69
Width: 1024
Flags: HW
LayerCount: 2
Fore
SplineSet
646 807 m 1
 770 716 l 1
 770 676 l 1
 744 669.333 714.333 661.167 681 651.5 c 128
 647.667 641.833 625 623.333 613 596 c 1
 642 163 l 1
 672 143.667 701.5 116.833 730.5 82.5 c 128
 759.5 48.1667 775 13.3333 777 -22 c 1
 751 -117 l 1
 681.667 -181.667 607 -206.333 527 -191 c 128
 447 -175.667 369 -147.333 293 -106 c 1
 274.333 -79.3333 245.333 -49.8333 206 -17.5 c 128
 166.667 14.8333 132.667 41 104 61 c 0
 92 69 80.6667 76.1667 70 82.5 c 128
 59.3333 88.8333 50 100 42 116 c 1
 108 109 l 1
 221 61 l 1
 282 14 l 1
 381 -62 l 1
 410.334 -76.6667 449.667 -87.6667 499 -95 c 128
 548.333 -102.333 586.333 -97.6667 613 -81 c 1
 636.333 -58.3333 648.667 -37.3333 650 -18 c 128
 651.333 1.33333 645 25.3333 631 54 c 1
 617 69.3334 605.333 77.1667 596 77.5 c 128
 586.667 77.8333 570.667 72.3333 548 61 c 1
 534 45.6667 519 32.8333 503 22.5 c 128
 487 12.1667 468 7 446 7 c 1
 444.667 25.6667 438.667 43.8333 428 61.5 c 128
 417.33 79.1667 413.664 99.6667 417 123 c 1
 504 207 l 1
 508 316 l 1
 514.667 354.667 518.667 406.333 520 471 c 128
 521.333 535.667 512.333 585.667 493 621 c 1
 473.667 633.667 456.333 648.667 441 666 c 128
 425.667 683.333 411.667 702.333 399 723 c 1
 442 745 l 1
 461 788 l 1
 526 785 l 1
 546.669 781.679 567.335 782.345 588 787 c 128
 608.667 791.673 628 798.339 646 807 c 1
228 570 m 1
 269.333 538 309.333 516 348 504 c 128
 386.667 492 407.333 451 410 381 c 1
 362 334 l 1
 336.667 321.331 303.167 315.664 261.5 317 c 128
 219.833 318.333 185.667 324 159 334 c 1
 133 360 119.333 384 118 406 c 128
 116.667 428 121.667 455 133 487 c 1
 228 570 l 1
831 567 m 1
 871 534 l 1
 904 527 l 1
 928.67 514.333 950.337 494 969 466 c 128
 987.667 438 991.667 409.667 981 381 c 1
 941 330 l 1
 923 314.667 900.167 307.5 872.5 308.5 c 128
 844.833 309.5 820.333 310.667 799 312 c 1
 762.333 346 740.5 375.833 733.5 401.5 c 128
 726.5 427.167 736 462.667 762 508 c 1
 773.333 516.667 784.5 527.5 795.5 540.5 c 128
 806.5 553.5 818.333 562.333 831 567 c 1
279 472 m 1
 259 466 243 460 231 454 c 128
 219 448 206 438.333 192 425 c 1
 186.667 413 184.167 404.5 184.5 399.5 c 128
 184.833 394.5 188.333 387.333 195 378 c 1
 217.667 374 240.5 374.833 263.5 380.5 c 128
 286.5 386.167 306 397.333 322 414 c 1
 323.333 430.667 321 444.333 315 455 c 128
 309 465.667 297 471.333 279 472 c 1
817 428 m 1
 815 415.333 814 404.5 814 395.5 c 128
 814 386.5 817.333 377 824 367 c 1
 842 363.667 856.167 365.833 866.5 373.5 c 128
 876.833 381.167 887 391 897 403 c 1
 898.333 419.667 897.833 434 895.5 446 c 128
 893.167 458 881.667 464.333 861 465 c 1
 817 428 l 1
EndSplineSet
EndChar

StartChar: u115DA
Encoding: 346 71130 70
Width: 1024
Flags: HW
LayerCount: 2
Fore
SplineSet
654 808 m 1
 668.667 806 689.667 793.667 717 771 c 128
 744.333 748.333 760.667 729.333 766 714 c 1
 757 680 l 1
 737.665 665.333 710.832 658.5 676.5 659.5 c 128
 642.165 660.5 611.332 647 584 619 c 1
 574.667 601.667 571.667 575.5 575 540.5 c 128
 578.333 505.5 580.333 478.333 581 459 c 2
 604 99 l 1
 593 -27 l 1
 609 -45 625.167 -64.1667 641.5 -84.5 c 128
 657.833 -104.833 677 -121 699 -133 c 1
 710.333 -137 723.333 -138.833 738 -138.5 c 128
 752.667 -138.167 762 -138 766 -138 c 1
 772.69 -143.333 774.357 -149.666 771 -157 c 128
 767.667 -164.333 764 -170.333 760 -175 c 1
 733.333 -191.667 706.167 -196.5 678.5 -189.5 c 128
 650.833 -182.5 624 -172 598 -158 c 1
 523 -94 l 2
 489.667 -65.3333 459.833 -31.5 433.5 7.5 c 128
 407.167 46.5 384.667 85.3333 366 124 c 1
 357.333 139.333 346 151.5 332 160.5 c 128
 318 169.5 307 182.667 299 200 c 1
 319.667 206.667 337.667 210.834 353 212.5 c 128
 368.334 214.167 386.667 211.667 408 205 c 2
 467 186 l 1
 458 591 l 1
 394 663 l 1
 355 694 l 1
 355 725 l 1
 389 736 l 1
 425 778 l 1
 525 769 l 1
 609 783 l 1
 654 808 l 1
755 574 m 1
 796 560 l 1
 855 543 l 1
 881 525 897 501.5 903 472.5 c 128
 909 443.5 904.333 416.667 889 392 c 1
 869 371.333 845.333 355.5 818 344.5 c 128
 790.667 333.5 762 332.667 732 342 c 1
 699 367 l 1
 678.333 389 669.333 410.667 672 432 c 128
 674.667 453.333 680.667 476.333 690 501 c 1
 755 574 l 1
227 565 m 1
 275.667 551 316.167 530 348.5 502 c 128
 380.833 474 382 432.667 352 378 c 1
 326.667 353.333 297.833 340 265.5 338 c 128
 233.167 336 200.667 341 168 353 c 1
 142.667 377.667 128.5 402.5 125.5 427.5 c 128
 122.5 452.5 131 479 151 507 c 1
 227 565 l 1
274 479 m 1
 252 476.33 235 470.663 223 462 c 128
 211 453.333 198.333 442.333 185 429 c 1
 183.667 422.333 183 418.5 183 417.5 c 128
 183 416.5 185.333 413.667 190 409 c 1
 209.333 403 228.833 401.333 248.5 404 c 128
 268.167 406.667 285 415 299 429 c 1
 298.333 438.333 296.833 447.833 294.5 457.5 c 128
 292.167 467.167 285.333 474.333 274 479 c 1
816 479 m 1
 802 475 789.5 473.5 778.5 474.5 c 128
 767.5 475.5 755.667 472.333 743 465 c 1
 739.667 453.667 738.667 443.833 740 435.5 c 128
 741.333 427.167 745.333 418.333 752 409 c 1
 767.333 400.327 781.167 397.661 793.5 401 c 128
 805.833 404.335 818 412.668 830 426 c 1
 834 436 835.667 446 835 456 c 128
 834.333 466 828 473.667 816 479 c 1
EndSplineSet
EndChar

StartChar: u115DB
Encoding: 347 71131 71
Width: 1024
Flags: HW
LayerCount: 2
Fore
SplineSet
821 807 m 1
 851 796.333 877.167 780.167 899.5 758.5 c 128
 921.833 736.833 927 708.333 915 673 c 1
 857 669 l 1
 824.333 658.333 791.333 641.167 758 617.5 c 128
 724.664 593.833 697.331 568 676 540 c 1
 666 510 666.333 467.333 677 412 c 128
 687.667 356.667 679.667 326 653 320 c 1
 630.333 338.667 604.667 342.833 576 332.5 c 128
 547.333 322.167 520.667 313 496 305 c 1
 484 293.667 473.333 283.167 464 273.5 c 128
 454.667 263.833 449.667 250.667 449 234 c 1
 478.333 209.333 513.667 202.5 555 213.5 c 128
 596.333 224.5 631.667 236.667 661 250 c 1
 694.333 258 737.833 254.833 791.5 240.5 c 128
 845.167 226.167 884 207 908 183 c 1
 921.333 165 931.167 145.833 937.5 125.5 c 128
 943.833 105.167 949.667 85 955 65 c 0
 963 35.6667 962.333 9 953 -15 c 128
 943.667 -39 937.667 -63.3333 935 -88 c 1
 865.667 -156 789.167 -192.333 705.5 -197 c 128
 621.833 -201.667 539 -177 457 -123 c 1
 225 109 l 1
 198.333 129 169.333 149.333 138 170 c 128
 106.667 190.667 82 214.667 64 242 c 1
 116 239.333 165.833 224.333 213.5 197 c 128
 261.167 169.667 305.667 141.333 347 112 c 1
 419 32 487 -25.5 551 -60.5 c 128
 615 -95.5 702.333 -86.3333 813 -33 c 1
 824.333 -7 832.167 16 836.5 36 c 128
 840.833 56 838.333 80.3333 829 109 c 1
 774 159 l 1
 753.333 163.666 729.5 160.833 702.5 150.5 c 128
 675.5 140.167 652.333 131.333 633 124 c 0
 616.333 117.333 595.333 111 570 105 c 128
 544.667 99 522.667 99 504 105 c 0
 461.333 118.333 423.666 140.5 391 171.5 c 128
 358.333 202.5 341 241.667 339 289 c 1
 370 383 l 1
 395.333 399 419.833 414.667 443.5 430 c 128
 467.167 445.333 492.333 458.333 519 469 c 1
 562 493 l 1
 551 536 l 1
 533 548.667 505.167 571.167 467.5 603.5 c 128
 429.833 635.833 410.666 660.333 410 677 c 1
 504 759 l 1
 645 752 l 1
 669 756.672 701.333 765.839 742 779.5 c 128
 782.667 793.173 809 802.339 821 807 c 1
EndSplineSet
EndChar
